<?xml version="1.0" encoding="utf-8"?>
<!-- Generator: Adobe Illustrator 16.0.0, SVG Export Plug-In . SVG Version: 6.00 Build 0)  -->
<!DOCTYPE svg PUBLIC "-//W3C//DTD SVG 1.1//EN" "http://www.w3.org/Graphics/SVG/1.1/DTD/svg11.dtd">
<svg id="icon9" xmlns="http://www.w3.org/2000/svg" xmlns:xlink="http://www.w3.org/1999/xlink" x="0px" y="0px"
	 width="72.53px" height="67.041px" viewBox="0 0 72.53 67.041" style="enable-background:new 0 0 72.53 67.041;"
	 xml:space="preserve">
<path id="outline" style="fill:#231F20;" d="M70.06,20.625H43.99c0.9-0.74,1.79-1.551,2.64-2.431c5.65-5.76,9.38-13.54,5.58-17.27
	c-0.54-0.53-1.76-1.37-3.78-1c-4.17,0.79-10.04,6.649-14.2,13.859c-1.38-1.699-3.17-3.77-4.98-5.289
	c-3.87-3.23-6.41-2.511-7.86-1.341c-3.52,2.87-3.52,8.521,0.01,12.87c0.17,0.21,0.34,0.41,0.52,0.601H2.48
	c-1.37,0-2.48,1.1-2.48,2.47v11.27c0,1.37,1.11,2.471,2.48,2.471h5.03v27.56c0,1.37,1.1,2.48,2.47,2.48h52.57
	c1.37,0,2.48-1.11,2.48-2.48v-27.56h5.03c1.37,0,2.47-1.101,2.47-2.471v-11.27C72.53,21.725,71.43,20.625,70.06,20.625z
	 M48.84,4.935c0.02,1.5-1.5,5.46-5.74,9.79c-2.3,2.34-4.51,3.88-6.29,4.81C40.81,10.915,46.63,5.864,48.84,4.935z M41.3,61.925
	h-6.31v-25.09h6.31V61.925z M37.55,25.574v6.311h-6.32v-6.311H37.55z M24.17,11.125c0.38,0.029,1.97,0.54,6.42,6.029
	c0.22,0.271,0.6,0.74,0.91,1.15c-0.09,0.07-0.19,0.15-0.3,0.24l-0.33,0.26l-0.01,0.01c-0.73,0.59-1.76,0.46-2.31,0.32
	c-1.18-0.29-2.39-1.11-3.31-2.24C23.37,14.595,23.36,11.944,24.17,11.125z M4.95,31.885v-6.311h21.33v6.311H4.95z M12.46,36.835
	h17.57v25.09H12.46V36.835z M60.07,61.925H46.25v-25.09h13.82V61.925z M67.58,31.885H42.5v-6.311h25.08V31.885z"/>
<rect id="top_x5F_left_x5F_blue" x="4.27" y="25.574" style="fill:#06ACFF;" width="22.093" height="6.477"/>
<g id="top_x5F_yellow">
	<rect x="31.3" y="25.156" style="fill:#D4E217;" width="6.32" height="6.895"/>
</g>
<rect id="top_x5F_right_x5F_blue" x="42.53" y="25.156" style="fill:#06ACFF;" width="25.08" height="6.895"/>
<rect id="bottom_x5F_left_x5F_blue" x="12.46" y="36.347" style="fill:#06ACFF;" width="17.57" height="25.744"/>
<g id="middle_x5F_yellow">
	<polyline style="fill:#D4E217;" points="41.383,62.091 34.104,62.091 34.104,35.514 41.383,35.514 	"/>
</g>
<g id="bottom_x5F_right_x5F_blue">
	<rect x="46.25" y="36.347" style="fill:#06ACFF;" width="13.82" height="25.744"/>
</g>
</svg>
