<?xml version="1.0" encoding="utf-8"?>
<!-- Generator: Adobe Illustrator 16.0.0, SVG Export Plug-In . SVG Version: 6.00 Build 0)  -->
<!DOCTYPE svg PUBLIC "-//W3C//DTD SVG 1.1//EN" "http://www.w3.org/Graphics/SVG/1.1/DTD/svg11.dtd">
<svg version="1.1" id="Icons" xmlns="http://www.w3.org/2000/svg" xmlns:xlink="http://www.w3.org/1999/xlink" x="0px" y="0px"
	 width="49.525px" height="77.797px" viewBox="0 0 49.525 77.797" enable-background="new 0 0 49.525 77.797" xml:space="preserve">
<path id="white_x5F_inside" fill="#FFFFFF" d="M5.429,25.357c0,0-2.875-5.761-0.958-8.11s6.792-9.182,10.375-10.349
	s3.542-3.458,10.667-2.375s8.792,1.25,11.25,3.167s5.584,6.416,6.917,8.458s1.417,5.13,1.792,7.877s0.5,0.123,0,4.665
	s0.666-0.352-0.709,7.012s-0.959,5.94-1.917,11.235s-0.625,4.419-1.375,9.086s-1.458,8.041-2.833,11.166s0.874,7.209-3.417,6.709
	s-9.374-1.436-9.291-4.01s-0.291-3.323,0.125-4.365c0,0,0.947-9.292,1.994-13.625s4.605-21.333,4.605-21.333l0.608-7.158
	c0,0,1.416-3.981-1.917-5.87s-7.333-2.275-10.75-0.29s-6,7.901-6,7.901l-8.083,2.5l-0.75-2.167L5.429,25.357z"/>
<g id="top">
	<path fill="#FF5656" d="M36.979,9.267h-0.021l-3.2,0.69L6.899,15.736c0.03-0.08,0.07-0.16,0.12-0.239
		c0.12-0.24,0.25-0.471,0.391-0.69c0.16-0.27,0.319-0.53,0.489-0.79c0.511-0.78,1.07-1.53,1.689-2.229
		c0.2-0.23,0.41-0.461,0.631-0.681c0.21-0.229,0.43-0.45,0.659-0.66c0.221-0.21,0.45-0.42,0.69-0.63
		c0.079-0.08,0.159-0.149,0.239-0.21h0.021l16-3.45l2.16-0.46c0.01,0,0.01,0,0.02,0c0.53,0.141,1.062,0.301,1.57,0.5
		c0.141,0.051,0.28,0.101,0.41,0.17c0.819,0.32,1.609,0.7,2.39,1.15h0.011c0.601,0.34,1.181,0.71,1.75,1.12
		C36.42,8.837,36.71,9.047,36.979,9.267z"/>
</g>
<g id="left">
	<path fill="#FF5555" d="M17.55,15.927c-0.043,0.03-0.087,0.06-0.13,0.1c-0.162,0.141-0.314,0.28-0.467,0.431
		c-0.151,0.14-0.294,0.279-0.435,0.43c-0.087,0.08-0.163,0.17-0.239,0.25c-0.207,0.229-0.402,0.46-0.586,0.689
		c-0.358,0.461-0.685,0.931-0.966,1.41c-0.315,0.53-0.576,1.07-0.793,1.63c-0.108,0.301-0.206,0.601-0.292,0.9l-0.013,0.01
		l-8.242,1.63H5.375c-0.292-0.5-0.444-1.05-0.444-1.58l0.021-0.14v-0.06l0.097-0.69v-0.01c0.206-0.92,0.468-1.82,0.815-2.69h0.021
		l11.645-2.31H17.55z"/>
</g>
<g id="right">
	<path fill="#FF5555" d="M42.2,15.457h-0.012l-4.023,0.8l-5.038,0.99h-0.011c-0.309-0.36-0.65-0.71-1.025-1.03
		c-0.343-0.311-0.707-0.601-1.081-0.87c-0.948-0.68-1.994-1.23-3.119-1.63c-0.056-0.021-0.1-0.04-0.154-0.061
		c-0.254-0.1-0.507-0.189-0.783-0.26l8.003-1.58l3.705-0.729h0.011c0.927,0.87,1.786,1.85,2.58,2.91
		C41.593,14.467,41.913,14.957,42.2,15.457z"/>
</g>
<g id="red1">
	<path fill="#FF5656" d="M44.42,22.337h-0.01l-4,0.87l-3.761,0.819h-0.01c-0.011-0.18-0.029-0.35-0.051-0.529
		c-0.04-0.4-0.109-0.801-0.199-1.21c-0.069-0.301-0.149-0.62-0.24-0.931c-0.069-0.22-0.141-0.439-0.22-0.66
		c-0.189-0.5-0.399-0.979-0.649-1.439v-0.01l4.109-0.891l3.771-0.819h0.01c0.11,0.289,0.221,0.579,0.32,0.88c0,0,0,0,0,0.01
		c0.18,0.521,0.34,1.05,0.479,1.59C44.17,20.767,44.32,21.547,44.42,22.337z"/>
</g>
<g id="red2">
	<path fill="#FF5555" d="M44.51,26.406v0.061c-0.02,0.32-0.05,0.64-0.1,0.95c-0.03,0.29-0.08,0.59-0.13,0.88
		c-0.03,0.2-0.07,0.41-0.11,0.609l-0.18,0.87l-0.011,0.011l-4.109,0.88l-4.28,0.909l-0.029,0.011l0.87-4.271
		c0.069-0.33,0.119-0.67,0.149-1.01l0.03-0.01l3.88-0.83l4.06-0.87h0.011C44.58,25.196,44.56,25.797,44.51,26.406z"/>
</g>
<g id="red3">
	<polygon fill="#FF5656" points="43.51,32.137 42.43,37.437 42.42,37.437 38.41,38.307 34.03,39.257 34.01,39.267 35.08,33.957 
		35.11,33.946 39.42,33.017 43.5,32.137 	"/>
</g>
<g id="red4">
	<polygon fill="#FF5555" points="42.01,39.816 40.93,45.116 40.92,45.116 37.02,45.957 32.529,46.927 32.51,46.938 33.59,41.637 
		33.609,41.627 38.02,40.677 41.999,39.816 	"/>
</g>
<g id="red6">
	<polygon fill="#FF5656" points="40.39,47.486 39.31,52.787 39.3,52.787 35.5,53.616 30.899,54.605 31.97,49.307 31.979,49.297 
		36.51,48.326 40.38,47.486 	"/>
</g>
<g id="red7">
	<polygon fill="#FF5555" points="38.83,55.167 37.75,60.467 37.74,60.467 34.05,61.268 29.34,62.275 30.42,56.986 30.42,56.977 
		35.06,55.977 38.82,55.167 	"/>
</g>
<g id="bottom">
	<path fill="#FF5656" d="M37.26,62.837l-1.069,5.3l-0.01,0.01l-3.561,0.771l-4.439,0.96l-0.011,0.011
		c-0.13-0.49-0.16-1.011-0.069-1.531l0.101-0.469l0.66-3.221v-0.011l4.75-1.029L37.26,62.837z"/>
</g>
<path id="outline" fill="#231F20" d="M48.755,18.936c-0.061-0.24-0.12-0.471-0.18-0.7c-0.2-0.7-0.431-1.38-0.69-2.061
	c-0.14-0.39-0.3-0.77-0.46-1.149c-0.14-0.311-0.29-0.62-0.43-0.931c-0.46-0.909-0.971-1.8-1.53-2.649
	c-0.159-0.24-0.319-0.48-0.489-0.71c-0.061-0.101-0.13-0.19-0.2-0.28c-0.239-0.33-0.479-0.65-0.72-0.96
	c-0.5-0.62-1.021-1.21-1.561-1.771c-0.149-0.159-0.311-0.319-0.471-0.47c-0.409-0.399-0.83-0.78-1.25-1.14
	c-0.58-0.48-1.17-0.93-1.779-1.34c-1.051-0.771-2.141-1.44-3.29-2.03c-1.16-0.58-2.359-1.07-3.609-1.46
	c-0.591-0.18-1.19-0.35-1.801-0.48c-0.239-0.06-0.479-0.109-0.72-0.159c-0.41-0.08-0.811-0.15-1.221-0.221
	c-0.01,0.011-0.021,0-0.029,0c-0.421-0.06-0.83-0.109-1.25-0.149c-1.671-0.17-3.341-0.17-5.04,0
	c-0.301,0.04-0.591,0.069-0.881,0.109l-3.859,0.86c-1.649,0.5-3.239,1.18-4.739,2.01c-0.5,0.28-1,0.58-1.479,0.891
	c-0.011,0.01-0.021,0.01-0.021,0.02c-0.479,0.31-0.95,0.65-1.41,0.99c-0.45,0.34-0.899,0.7-1.33,1.08c0,0,0,0-0.01,0.01
	c-0.29,0.25-0.57,0.51-0.851,0.78c-0.28,0.26-0.551,0.529-0.811,0.81c-0.13,0.13-0.261,0.26-0.37,0.4
	c-0.659,0.71-1.271,1.46-1.84,2.239c-0.229,0.311-0.45,0.631-0.66,0.961c-0.199,0.319-0.399,0.64-0.59,0.97
	c-0.17,0.28-0.34,0.569-0.511,0.87c-0.199,0.359-0.39,0.72-0.56,1.1c-0.11,0.23-0.211,0.45-0.32,0.68
	c-0.68,1.561-1.21,3.2-1.54,4.83c-0.021,0.07-0.04,0.15-0.069,0.221c0,0.02,0,0.029-0.011,0.05v0.01c-0.04,0.2-0.069,0.4-0.09,0.62
	c-0.021,0.08-0.021,0.17-0.029,0.25l-0.051,0.54c0,0.29,0.011,0.58,0.03,0.87c0.021,0.22,0.04,0.43,0.069,0.64
	c0.029,0.2,0.061,0.4,0.109,0.59c0.011,0.061,0.03,0.12,0.04,0.181c0.04,0.17,0.09,0.34,0.141,0.51c0.771,2.51,2.601,4.59,5.04,5.63
	c0.01,0.01,0.01,0.01,0.021,0.01c0.199,0.08,0.399,0.141,0.609,0.2c0.319,0.16,0.63,0.24,0.87,0.3c0.069,0.01,0.13,0.021,0.181,0.03
	c0.159,0.03,0.31,0.06,0.47,0.09c0.221,0.03,0.439,0.061,0.66,0.08c0.75,0.05,1.51,0.01,2.239-0.12c0.25-0.05,0.5-0.11,0.761-0.17
	c0.149-0.04,0.3-0.09,0.449-0.14c1.051-0.37,2.051-0.931,2.971-1.681c0.01-0.01,0.01-0.01,0.021-0.02
	c0.189-0.17,0.38-0.34,0.561-0.521c0.529-0.54,0.979-1.13,1.351-1.75c0.189-0.31,0.35-0.63,0.5-0.96c0.14-0.33,0.26-0.67,0.359-1.02
	c0.069-0.23,0.12-0.46,0.17-0.7c0.069-0.33,0.16-0.66,0.279-0.979c0.16-0.46,0.381-0.91,0.66-1.341c0.181-0.3,0.391-0.58,0.62-0.85
	c0.109-0.13,0.229-0.26,0.359-0.39v-0.011c1.689-1.75,4.101-2.51,6.41-2.05c0.12,0.03,0.239,0.061,0.37,0.101
	c0.079,0.02,0.17,0.04,0.26,0.069c0.109,0.03,0.221,0.061,0.34,0.11c0.12,0.04,0.24,0.08,0.36,0.13c0.47,0.18,0.899,0.41,1.311,0.69
	c0.14,0.09,0.271,0.189,0.399,0.29c0.3,0.239,0.59,0.51,0.859,0.8c0.181,0.189,0.34,0.399,0.489,0.609
	c0.16,0.21,0.301,0.431,0.431,0.66c0.13,0.221,0.25,0.46,0.359,0.7c0.051,0.13,0.101,0.26,0.15,0.39c0.06,0.12,0.1,0.25,0.14,0.37
	c0.03,0.11,0.061,0.21,0.07,0.32c0.04,0.11,0.061,0.21,0.08,0.32c0.05,0.21,0.079,0.42,0.1,0.63c0.021,0.14,0.03,0.27,0.04,0.41
	c0.011,0.17,0.021,0.33,0.021,0.489c0,0.23,0,0.46-0.04,0.69c-0.01,0.24-0.05,0.47-0.09,0.7l-3.95,19.41l-4.279,21.149l-0.069,0.21
	l-0.07,0.359c-0.029,0.201-0.061,0.399-0.069,0.601v0.011c-0.011,0.101-0.021,0.199-0.03,0.301c-0.01,0.188-0.02,0.369-0.02,0.56
	c-0.011,1.569,0.399,3.062,1.14,4.37c0.25,0.43,0.53,0.84,0.841,1.22c0.159,0.19,0.319,0.37,0.489,0.55
	c0.17,0.182,0.351,0.352,0.54,0.521c0.75,0.66,1.63,1.199,2.601,1.57c0.47,0.18,0.97,0.33,1.489,0.43
	c0.101,0.02,0.2,0.04,0.29,0.061c0.04,0.01,0.08,0.01,0.12,0.021c0.13,0.021,0.25,0.04,0.359,0.05h0.04
	c0.07,0.01,0.13,0.01,0.181,0.01c0.26,0.021,0.529,0.04,0.8,0.04c1.399,0,2.74-0.329,3.939-0.909
	c0.181-0.091,0.351-0.181,0.521-0.279c0.189-0.11,0.37-0.23,0.551-0.352c0.409-0.279,0.8-0.59,1.159-0.938
	c0.171-0.16,0.33-0.33,0.479-0.5c0.021-0.021,0.04-0.04,0.061-0.07c0.131-0.14,0.25-0.29,0.36-0.438
	c0.06-0.062,0.109-0.131,0.149-0.201c0.13-0.18,0.25-0.35,0.37-0.539c0-0.01,0.01-0.021,0.021-0.03c0.1-0.181,0.21-0.36,0.3-0.55
	c0.239-0.46,0.439-0.94,0.59-1.44c0.04-0.13,0.08-0.26,0.11-0.39c0.039-0.15,0.079-0.301,0.109-0.45l8.3-40.81
	c0.109-0.54,0.2-1.061,0.271-1.58c0.03-0.17,0.051-0.34,0.061-0.51c0.011-0.101,0.021-0.211,0.029-0.311
	c0.011-0.07,0.021-0.14,0.021-0.2c0.011-0.149,0.021-0.3,0.021-0.439C49.666,24.275,49.445,21.555,48.755,18.936z M44.515,26.555
	v0.061c-0.021,0.32-0.051,0.64-0.101,0.95c-0.03,0.29-0.08,0.59-0.13,0.88c-0.03,0.2-0.07,0.41-0.11,0.609l-0.18,0.87l-0.479,2.36
	l-1.08,5.3l-0.479,2.38l-1.08,5.301l-0.479,2.369l-1.08,5.301l-0.479,2.381l-1.08,5.3l-0.479,2.37h-0.01l-1.07,5.3l-0.01,0.01
	l-0.311,1.55c-0.069,0.342-0.181,0.65-0.34,0.95c-0.04,0.101-0.091,0.2-0.16,0.29c-0.04,0.08-0.101,0.15-0.149,0.221
	c-0.271,0.409-0.63,0.75-1.051,1.029c-0.689,0.45-1.479,0.68-2.289,0.65c-0.221,0-0.45-0.03-0.671-0.07
	c-0.119-0.02-0.229-0.05-0.34-0.09c-0.01-0.01-0.021-0.01-0.029-0.01c-0.11-0.041-0.221-0.07-0.33-0.121
	c-0.149-0.049-0.29-0.119-0.42-0.199c-0.061-0.021-0.12-0.061-0.181-0.1c-0.04-0.021-0.069-0.041-0.101-0.062
	c-0.149-0.09-0.279-0.188-0.41-0.31c-0.01,0-0.02-0.012-0.029-0.021c-0.16-0.14-0.3-0.29-0.431-0.449c0,0-0.021-0.011-0.021-0.021
	c-0.359-0.44-0.619-0.95-0.75-1.5c-0.13-0.49-0.159-1.011-0.069-1.53l0.101-0.47l0.66-3.22v-0.012l0.479-2.38l1.079-5.29v-0.01
	l0.479-2.37l1.07-5.3l0.479-2.37l1.08-5.3l0.479-2.37l1.069-5.31l0.479-2.37l0.87-4.271c0.069-0.33,0.12-0.67,0.149-1.01
	c0.101-0.75,0.12-1.51,0.061-2.28c-0.011-0.18-0.029-0.35-0.051-0.529c-0.039-0.4-0.109-0.801-0.199-1.21
	c-0.069-0.301-0.149-0.62-0.24-0.931c-0.069-0.22-0.14-0.439-0.22-0.66c-0.189-0.5-0.399-0.979-0.649-1.439v-0.01
	c-0.37-0.721-0.811-1.381-1.311-2h-0.011c-0.279-0.36-0.59-0.71-0.93-1.03c-0.311-0.312-0.641-0.601-0.979-0.87
	c-0.86-0.68-1.811-1.23-2.83-1.63c-0.051-0.021-0.091-0.04-0.141-0.062c-0.229-0.1-0.46-0.188-0.71-0.26h-0.01
	c-0.24-0.09-0.49-0.16-0.75-0.22c-0.19-0.05-0.391-0.09-0.601-0.13c-0.979-0.2-1.961-0.28-2.931-0.24
	c-0.24,0.01-0.479,0.02-0.71,0.05c-0.38,0.04-0.76,0.09-1.13,0.17c-0.271,0.05-0.54,0.12-0.801,0.19
	c-0.13,0.04-0.271,0.07-0.399,0.12c-0.2,0.06-0.41,0.13-0.609,0.21c-0.311,0.109-0.609,0.24-0.899,0.38
	c-0.051,0.02-0.101,0.04-0.15,0.06c-0.31,0.15-0.609,0.32-0.899,0.5c-0.561,0.33-1.101,0.71-1.609,1.141
	c-0.061,0.05-0.109,0.09-0.16,0.149c-0.029,0.021-0.05,0.04-0.08,0.07l-0.079,0.08c-0.04,0.03-0.08,0.06-0.12,0.1
	c-0.149,0.141-0.29,0.28-0.431,0.431c-0.14,0.14-0.271,0.279-0.399,0.43c-0.08,0.08-0.149,0.17-0.221,0.25
	c-0.189,0.229-0.369,0.46-0.539,0.689c-0.33,0.461-0.631,0.931-0.891,1.41c-0.29,0.53-0.53,1.07-0.729,1.63
	c-0.101,0.301-0.189,0.601-0.271,0.9c-0.07,0.25-0.13,0.49-0.181,0.74c-0.021,0.1-0.05,0.21-0.08,0.31
	c-0.029,0.101-0.069,0.2-0.101,0.3c-0.069,0.19-0.17,0.37-0.279,0.551c-0.16,0.27-0.351,0.52-0.59,0.75
	c-0.07,0.08-0.149,0.159-0.24,0.229c-0.021,0.021-0.029,0.03-0.05,0.05c-0.24,0.21-0.521,0.391-0.811,0.521
	c-0.101,0.05-0.21,0.09-0.311,0.13c-0.449,0.19-0.931,0.29-1.38,0.29c-0.189,0-0.391-0.021-0.761-0.08l-0.34-0.11H7.815
	c-0.101-0.029-0.199-0.06-0.29-0.1c-0.21-0.07-0.399-0.17-0.59-0.28c-0.28-0.16-0.551-0.359-0.78-0.58
	c-0.159-0.16-0.319-0.33-0.449-0.51c-0.069-0.09-0.13-0.189-0.189-0.28c-0.061-0.09-0.12-0.189-0.17-0.29
	c-0.271-0.5-0.41-1.05-0.41-1.58l0.021-0.14v-0.06c0.021-0.24,0.04-0.471,0.09-0.69v-0.01c0.189-0.92,0.431-1.82,0.75-2.69
	c0.24-0.689,0.521-1.35,0.841-2c0.09-0.17,0.17-0.34,0.27-0.5c0.03-0.08,0.07-0.16,0.12-0.239c0.12-0.24,0.25-0.471,0.391-0.69
	c0.16-0.27,0.319-0.53,0.489-0.79c0.511-0.78,1.07-1.53,1.69-2.229c0.199-0.23,0.409-0.471,0.63-0.681
	c0.21-0.24,0.43-0.46,0.66-0.66c0.22-0.21,0.449-0.42,0.689-0.63c0.079-0.08,0.159-0.149,0.239-0.21c2-1.7,4.32-2.979,6.75-3.72
	l0.08-0.021c0.101-0.04,0.21-0.069,0.311-0.1l2.88-0.63c0.46-0.061,0.92-0.11,1.38-0.13c0.24-0.021,0.471-0.04,0.7-0.04
	c0.3-0.01,0.601-0.021,0.899-0.01c0.011-0.011,0.011,0,0.021,0c0.28,0,0.569,0.01,0.851,0.029c0.641,0.03,1.279,0.09,1.92,0.19
	c0.34,0.05,0.67,0.11,1.011,0.18c0.34,0.07,0.68,0.141,1.01,0.23c0.12,0.029,0.25,0.06,0.37,0.109c0.01,0,0.01,0,0.021,0
	c0.529,0.141,1.061,0.301,1.569,0.5c0.141,0.051,0.28,0.101,0.41,0.17c0.819,0.32,1.609,0.7,2.391,1.15h0.01
	c0.601,0.34,1.181,0.71,1.75,1.12c0.28,0.2,0.569,0.41,0.84,0.63c0.11,0.08,0.21,0.16,0.311,0.25c0.101,0.09,0.21,0.18,0.32,0.271
	c0.21,0.18,0.42,0.359,0.619,0.55l0.04,0.04c0.229,0.21,0.46,0.43,0.67,0.66c0.021,0.02,0.04,0.029,0.051,0.05h0.01
	c0.841,0.87,1.62,1.85,2.341,2.91c0.31,0.47,0.6,0.96,0.859,1.46c0.181,0.33,0.351,0.67,0.511,1.02c0.159,0.35,0.319,0.7,0.46,1.061
	c0.109,0.289,0.22,0.579,0.319,0.88c0,0,0,0,0,0.01c0.181,0.52,0.34,1.05,0.479,1.59c0.2,0.75,0.351,1.53,0.45,2.32
	c0.09,0.739,0.14,1.489,0.14,2.26C44.585,25.345,44.565,25.945,44.515,26.555z"/>
</svg>
