<?xml version="1.0" encoding="utf-8"?>
<!-- Generator: Adobe Illustrator 16.0.0, SVG Export Plug-In . SVG Version: 6.00 Build 0)  -->
<!DOCTYPE svg PUBLIC "-//W3C//DTD SVG 1.1//EN" "http://www.w3.org/Graphics/SVG/1.1/DTD/svg11.dtd">
<svg version="1.1" id="Icons" xmlns="http://www.w3.org/2000/svg" xmlns:xlink="http://www.w3.org/1999/xlink" x="0px" y="0px"
	 width="49.525px" height="77.797px" viewBox="0 0 49.525 77.797" enable-background="new 0 0 49.525 77.797" xml:space="preserve">
<g>
	<path id="white_x5F_inside" fill="#FFFFFF" d="M4.616,25.156c0,0-2.875-5.761-0.958-8.11S10.45,7.864,14.034,6.697
		c3.582-1.167,3.541-3.458,10.666-2.375s8.792,1.25,11.25,3.167s5.584,6.416,6.917,8.458s1.417,5.13,1.792,7.877s0.5,0.123,0,4.665
		s0.666-0.352-0.709,7.012s-0.959,5.94-1.917,11.235s-0.625,4.419-1.375,9.086s-1.458,8.041-2.833,11.166s0.874,7.209-3.417,6.709
		s-9.374-1.436-9.291-4.01s-0.291-3.323,0.125-4.365c0,0,0.947-9.292,1.994-13.625s4.605-21.333,4.605-21.333l0.608-7.158
		c0,0,1.416-3.981-1.917-5.87s-7.333-2.275-10.749-0.29c-3.418,1.985-6,7.901-6,7.901l-8.084,2.5l-0.75-2.167L4.616,25.156z"/>
	<g id="outline">
		<g>
			<path fill="#231F20" d="M48.75,18.787c-0.061-0.24-0.12-0.471-0.18-0.7c-0.2-0.7-0.431-1.38-0.69-2.061
				c-0.14-0.39-0.3-0.77-0.46-1.149c-0.14-0.311-0.29-0.62-0.43-0.931c-0.46-0.909-0.971-1.8-1.53-2.649
				c-0.16-0.24-0.319-0.48-0.489-0.71c-0.061-0.101-0.131-0.19-0.2-0.28c-0.239-0.33-0.479-0.65-0.721-0.96
				c-0.5-0.62-1.02-1.21-1.56-1.771c-0.15-0.159-0.311-0.319-0.471-0.47c-0.409-0.399-0.83-0.78-1.25-1.14
				c-0.58-0.48-1.17-0.93-1.779-1.34c-1.051-0.771-2.141-1.44-3.29-2.03c-1.16-0.58-2.36-1.07-3.61-1.46
				c-0.59-0.18-1.189-0.35-1.8-0.479c-0.24-0.06-0.479-0.109-0.72-0.159c-0.41-0.08-0.812-0.15-1.221-0.221
				c-0.011,0.011-0.021,0-0.029,0c-0.421-0.06-0.83-0.109-1.25-0.149c-1.671-0.17-3.341-0.17-5.04,0
				c-0.301,0.04-0.591,0.069-0.881,0.109l-3.859,0.86c-1.649,0.5-3.24,1.18-4.74,2.01c-0.5,0.28-1,0.58-1.479,0.891
				c-0.011,0.01-0.021,0.01-0.021,0.02c-0.479,0.31-0.949,0.65-1.409,0.99c-0.45,0.34-0.899,0.7-1.33,1.08c0,0,0,0-0.011,0.01
				c-0.29,0.25-0.569,0.51-0.85,0.78c-0.28,0.26-0.551,0.529-0.811,0.81c-0.131,0.13-0.261,0.26-0.37,0.4
				C5.61,8.797,5,9.547,4.43,10.326c-0.229,0.311-0.45,0.631-0.66,0.961c-0.199,0.319-0.399,0.64-0.59,0.97
				c-0.171,0.28-0.341,0.569-0.511,0.87c-0.199,0.359-0.39,0.72-0.56,1.1c-0.11,0.23-0.211,0.45-0.32,0.68
				c-0.68,1.561-1.21,3.2-1.54,4.83c-0.021,0.07-0.04,0.15-0.069,0.221c0,0.02,0,0.029-0.011,0.05v0.01
				c-0.04,0.2-0.069,0.4-0.09,0.62c-0.021,0.08-0.021,0.17-0.03,0.25L0,21.427c0,0.29,0.01,0.58,0.03,0.87
				c0.02,0.22,0.04,0.43,0.069,0.64c0.029,0.2,0.061,0.4,0.109,0.59c0.011,0.061,0.03,0.12,0.04,0.181
				c0.04,0.17,0.09,0.34,0.141,0.51c0.771,2.51,2.601,4.59,5.04,5.63c0.01,0.01,0.01,0.01,0.021,0.01
				c0.199,0.08,0.399,0.141,0.609,0.2c0.319,0.16,0.63,0.24,0.87,0.3c0.069,0.01,0.13,0.021,0.181,0.03
				c0.159,0.03,0.31,0.06,0.47,0.09c0.22,0.03,0.439,0.061,0.66,0.08c0.75,0.05,1.51,0.01,2.239-0.12c0.25-0.05,0.5-0.11,0.761-0.17
				c0.149-0.04,0.3-0.09,0.449-0.14c1.051-0.37,2.051-0.931,2.971-1.681c0.01-0.01,0.01-0.01,0.021-0.021
				c0.189-0.17,0.38-0.34,0.561-0.521c0.529-0.54,0.979-1.13,1.35-1.75c0.19-0.31,0.351-0.63,0.5-0.96
				c0.141-0.33,0.261-0.67,0.36-1.02c0.069-0.23,0.12-0.46,0.17-0.7c0.069-0.33,0.16-0.66,0.279-0.979
				c0.16-0.46,0.381-0.91,0.66-1.341c0.181-0.3,0.391-0.58,0.62-0.85c0.109-0.13,0.229-0.26,0.359-0.39v-0.011
				c1.689-1.75,4.101-2.51,6.41-2.05c0.12,0.03,0.239,0.061,0.37,0.101c0.079,0.02,0.17,0.04,0.26,0.069
				c0.109,0.03,0.22,0.061,0.34,0.11c0.12,0.04,0.24,0.08,0.36,0.13c0.47,0.18,0.899,0.41,1.31,0.69
				c0.141,0.09,0.271,0.189,0.4,0.29c0.3,0.239,0.59,0.51,0.859,0.8c0.181,0.189,0.34,0.399,0.489,0.609
				c0.16,0.21,0.301,0.431,0.431,0.66c0.13,0.221,0.25,0.46,0.359,0.7c0.051,0.13,0.101,0.26,0.15,0.39
				c0.06,0.12,0.1,0.25,0.14,0.37c0.03,0.11,0.061,0.21,0.07,0.32c0.04,0.11,0.06,0.21,0.08,0.32c0.05,0.21,0.079,0.42,0.1,0.63
				c0.021,0.14,0.03,0.27,0.04,0.41c0.011,0.17,0.021,0.33,0.021,0.489c0,0.23,0,0.46-0.04,0.69c-0.01,0.24-0.05,0.47-0.09,0.7
				l-3.95,19.41L23.37,66.896l-0.07,0.209l-0.069,0.36c-0.029,0.2-0.061,0.399-0.069,0.601v0.01
				c-0.011,0.101-0.021,0.199-0.03,0.301c-0.01,0.189-0.02,0.37-0.02,0.561c-0.011,1.569,0.398,3.061,1.14,4.369
				c0.25,0.43,0.53,0.84,0.84,1.221c0.16,0.189,0.32,0.369,0.49,0.55s0.351,0.351,0.54,0.521c0.75,0.66,1.63,1.2,2.601,1.57
				c0.47,0.18,0.97,0.33,1.489,0.43c0.101,0.021,0.2,0.041,0.29,0.061c0.04,0.011,0.08,0.011,0.12,0.021
				c0.13,0.02,0.25,0.039,0.359,0.049h0.04c0.069,0.011,0.13,0.011,0.181,0.011c0.26,0.021,0.529,0.04,0.8,0.04
				c1.399,0,2.74-0.33,3.939-0.91c0.181-0.09,0.351-0.18,0.521-0.279c0.189-0.109,0.37-0.23,0.551-0.351
				c0.409-0.279,0.8-0.591,1.159-0.939c0.17-0.159,0.33-0.329,0.479-0.5c0.021-0.021,0.04-0.04,0.061-0.069
				c0.13-0.141,0.25-0.291,0.36-0.439c0.06-0.061,0.109-0.131,0.149-0.2c0.13-0.181,0.25-0.351,0.369-0.54
				c0-0.01,0.011-0.021,0.021-0.029c0.1-0.181,0.21-0.36,0.3-0.551c0.239-0.46,0.439-0.939,0.59-1.439
				c0.04-0.131,0.08-0.26,0.11-0.391c0.039-0.149,0.079-0.3,0.109-0.449l8.3-40.811c0.109-0.54,0.2-1.061,0.271-1.58
				c0.03-0.17,0.05-0.34,0.061-0.51c0.011-0.101,0.021-0.211,0.029-0.311c0.011-0.07,0.021-0.14,0.021-0.2
				c0.011-0.149,0.021-0.3,0.021-0.439C49.66,24.127,49.439,21.406,48.75,18.787z M44.51,26.406v0.061
				c-0.02,0.32-0.05,0.64-0.1,0.95c-0.03,0.29-0.08,0.59-0.13,0.88c-0.03,0.2-0.07,0.41-0.11,0.609l-0.18,0.87l-0.48,2.36
				l-1.079,5.3l-0.479,2.38l-1.08,5.3l-0.479,2.37l-1.08,5.301l-0.479,2.38l-1.08,5.3l-0.479,2.37h-0.01l-1.07,5.3l-0.01,0.01
				l-0.311,1.551c-0.07,0.341-0.181,0.65-0.34,0.949c-0.04,0.102-0.091,0.201-0.16,0.291c-0.04,0.08-0.101,0.149-0.149,0.22
				c-0.271,0.409-0.631,0.75-1.051,1.03c-0.689,0.449-1.479,0.68-2.29,0.649c-0.22,0-0.449-0.03-0.67-0.069
				c-0.12-0.021-0.229-0.051-0.34-0.091c-0.01-0.01-0.021-0.01-0.03-0.01c-0.109-0.04-0.22-0.069-0.329-0.12
				c-0.149-0.05-0.29-0.12-0.421-0.199c-0.06-0.021-0.119-0.061-0.18-0.101c-0.04-0.021-0.07-0.04-0.101-0.062
				c-0.149-0.09-0.279-0.188-0.41-0.31c-0.01,0-0.021-0.011-0.029-0.021c-0.16-0.141-0.3-0.291-0.431-0.45
				c0,0-0.021-0.011-0.021-0.021c-0.359-0.439-0.62-0.949-0.75-1.5c-0.13-0.49-0.159-1.01-0.069-1.529l0.101-0.471l0.66-3.22v-0.011
				l0.479-2.381l1.08-5.289v-0.01l0.479-2.371l1.07-5.299l0.479-2.371l1.08-5.3l0.479-2.37l1.07-5.31l0.479-2.37l0.87-4.271
				c0.069-0.33,0.119-0.67,0.149-1.01c0.101-0.75,0.12-1.51,0.061-2.28c-0.011-0.18-0.029-0.35-0.051-0.529
				c-0.04-0.4-0.109-0.801-0.199-1.21c-0.069-0.301-0.149-0.62-0.24-0.931c-0.069-0.22-0.141-0.439-0.22-0.66
				c-0.189-0.5-0.399-0.979-0.649-1.439v-0.01c-0.37-0.721-0.812-1.381-1.312-2h-0.01c-0.279-0.36-0.59-0.71-0.93-1.03
				c-0.312-0.311-0.641-0.601-0.98-0.87c-0.859-0.68-1.81-1.229-2.83-1.63c-0.05-0.021-0.09-0.04-0.14-0.061
				c-0.229-0.1-0.46-0.189-0.71-0.26h-0.01c-0.24-0.09-0.49-0.16-0.75-0.22c-0.19-0.05-0.392-0.09-0.602-0.13
				c-0.979-0.2-1.96-0.28-2.93-0.24c-0.24,0.01-0.479,0.02-0.71,0.05c-0.38,0.04-0.76,0.09-1.13,0.17
				c-0.271,0.05-0.54,0.12-0.801,0.19c-0.13,0.04-0.271,0.07-0.399,0.12c-0.2,0.06-0.41,0.13-0.61,0.21
				c-0.31,0.109-0.608,0.24-0.898,0.38c-0.051,0.02-0.102,0.04-0.15,0.06c-0.31,0.15-0.609,0.32-0.899,0.5
				c-0.561,0.33-1.101,0.71-1.609,1.141c-0.061,0.05-0.11,0.09-0.16,0.149c-0.029,0.021-0.05,0.04-0.08,0.07l-0.08,0.08
				c-0.04,0.03-0.079,0.06-0.119,0.1c-0.149,0.141-0.29,0.28-0.431,0.431c-0.14,0.14-0.271,0.279-0.399,0.43
				c-0.08,0.08-0.149,0.17-0.221,0.25c-0.189,0.229-0.37,0.46-0.54,0.689c-0.33,0.461-0.63,0.931-0.89,1.41
				c-0.29,0.53-0.53,1.07-0.729,1.63c-0.101,0.301-0.189,0.601-0.271,0.9c-0.07,0.25-0.13,0.49-0.181,0.74
				c-0.021,0.1-0.051,0.21-0.08,0.31c-0.029,0.101-0.069,0.2-0.101,0.3c-0.069,0.19-0.17,0.37-0.279,0.551
				c-0.16,0.27-0.351,0.52-0.591,0.75c-0.069,0.08-0.148,0.159-0.239,0.229c-0.021,0.021-0.029,0.03-0.05,0.05
				c-0.24,0.21-0.521,0.391-0.811,0.521c-0.101,0.05-0.21,0.09-0.311,0.13c-0.449,0.19-0.931,0.29-1.381,0.29
				c-0.188,0-0.39-0.021-0.76-0.08l-0.34-0.11H7.81c-0.101-0.029-0.199-0.06-0.29-0.1c-0.21-0.07-0.399-0.17-0.59-0.28
				c-0.28-0.16-0.551-0.359-0.78-0.58c-0.159-0.16-0.319-0.33-0.449-0.51c-0.07-0.09-0.13-0.189-0.189-0.28
				c-0.061-0.09-0.12-0.189-0.171-0.29c-0.27-0.5-0.409-1.05-0.409-1.58l0.021-0.14v-0.06c0.021-0.24,0.04-0.471,0.09-0.69v-0.01
				c0.189-0.92,0.431-1.82,0.75-2.69c0.24-0.689,0.521-1.35,0.84-2c0.091-0.17,0.17-0.34,0.271-0.5c0.03-0.08,0.07-0.16,0.12-0.239
				c0.12-0.24,0.25-0.471,0.391-0.69c0.16-0.27,0.319-0.53,0.489-0.79c0.511-0.78,1.07-1.53,1.689-2.229
				c0.2-0.23,0.41-0.471,0.631-0.681c0.21-0.24,0.43-0.46,0.659-0.66c0.221-0.21,0.45-0.42,0.69-0.63
				c0.079-0.08,0.159-0.149,0.239-0.21c2-1.7,4.319-2.979,6.75-3.72l0.08-0.021c0.101-0.04,0.21-0.069,0.311-0.1l2.88-0.63
				c0.46-0.061,0.92-0.11,1.38-0.13c0.24-0.021,0.471-0.04,0.7-0.04c0.3-0.01,0.601-0.021,0.899-0.01c0.011-0.011,0.011,0,0.021,0
				c0.28,0,0.569,0.01,0.851,0.029c0.641,0.03,1.279,0.09,1.92,0.19c0.34,0.05,0.67,0.11,1.011,0.18c0.34,0.07,0.68,0.141,1.01,0.23
				c0.12,0.029,0.25,0.06,0.37,0.109c0.01,0,0.01,0,0.021,0c0.529,0.141,1.061,0.301,1.569,0.5c0.141,0.051,0.28,0.101,0.41,0.17
				c0.819,0.32,1.609,0.7,2.39,1.15h0.011c0.601,0.34,1.181,0.71,1.75,1.12c0.279,0.2,0.569,0.41,0.84,0.63
				c0.109,0.08,0.21,0.16,0.311,0.25c0.101,0.09,0.21,0.18,0.32,0.271c0.21,0.18,0.42,0.359,0.619,0.55l0.04,0.04
				c0.229,0.21,0.46,0.43,0.67,0.66c0.021,0.02,0.04,0.029,0.051,0.05H39c0.84,0.87,1.62,1.85,2.34,2.91
				c0.311,0.47,0.601,0.96,0.86,1.46c0.18,0.33,0.35,0.67,0.51,1.02s0.32,0.7,0.46,1.061c0.11,0.289,0.221,0.579,0.32,0.88
				c0,0,0,0,0,0.01c0.18,0.52,0.34,1.05,0.479,1.59c0.199,0.75,0.351,1.53,0.449,2.32c0.09,0.739,0.141,1.489,0.141,2.26
				C44.58,25.196,44.56,25.797,44.51,26.406z"/>
			<path fill="#FFFFFF" d="M44.51,26.406v0.061c-0.02,0.32-0.05,0.64-0.1,0.95c-0.03,0.29-0.08,0.59-0.13,0.88
				c-0.03,0.2-0.07,0.41-0.11,0.609l-0.18,0.87l-0.48,2.36l-1.079,5.3l-0.479,2.38l-1.08,5.3l-0.479,2.37l-1.08,5.301l-0.479,2.38
				l-1.08,5.3l-0.479,2.37h-0.01l-1.07,5.3l-0.01,0.01l-0.311,1.551c-0.07,0.341-0.181,0.65-0.34,0.949
				c-0.051,0.102-0.101,0.19-0.16,0.291c-0.04,0.08-0.101,0.149-0.149,0.22c-0.271,0.409-0.631,0.75-1.051,1.03
				c-0.689,0.449-1.479,0.68-2.29,0.649c-0.22,0-0.449-0.03-0.67-0.069c-0.12-0.021-0.229-0.051-0.34-0.091
				c-0.01-0.01-0.021-0.01-0.03-0.01c-0.109-0.04-0.22-0.069-0.329-0.12c-0.149-0.05-0.29-0.12-0.421-0.199
				c-0.06-0.021-0.119-0.061-0.18-0.101c-0.04-0.021-0.07-0.04-0.101-0.062c-0.141-0.1-0.279-0.199-0.41-0.31
				c-0.01,0-0.021-0.011-0.029-0.021c-0.16-0.141-0.3-0.291-0.431-0.45c0,0-0.021-0.011-0.021-0.021
				c-0.359-0.439-0.62-0.949-0.75-1.5c-0.13-0.49-0.159-1.01-0.069-1.529l0.101-0.471l0.66-3.22v-0.011l0.479-2.381l1.08-5.289
				v-0.01l0.479-2.371l1.07-5.299l0.479-2.371l1.08-5.3l0.479-2.37l1.07-5.31l0.479-2.37l0.87-4.271
				c0.069-0.33,0.119-0.67,0.149-1.01c0.101-0.75,0.12-1.51,0.061-2.28c-0.011-0.18-0.029-0.35-0.051-0.529
				c-0.04-0.4-0.109-0.801-0.199-1.21c-0.069-0.301-0.149-0.62-0.24-0.931c-0.069-0.22-0.141-0.439-0.22-0.66
				c-0.189-0.5-0.399-0.979-0.649-1.439v-0.01c-0.37-0.721-0.812-1.381-1.312-2h-0.01c-0.279-0.36-0.59-0.71-0.93-1.03
				c-0.312-0.311-0.641-0.601-0.98-0.87c-0.859-0.68-1.81-1.229-2.83-1.63c-0.05-0.021-0.09-0.04-0.14-0.061
				c-0.229-0.1-0.46-0.189-0.71-0.26h-0.01c-0.24-0.09-0.49-0.16-0.75-0.22c-0.19-0.05-0.392-0.09-0.602-0.13
				c-0.979-0.2-1.96-0.28-2.93-0.24c-0.24,0.01-0.479,0.02-0.71,0.05c-0.38,0.04-0.76,0.09-1.13,0.17
				c-0.271,0.05-0.54,0.12-0.801,0.19c-0.13,0.04-0.271,0.07-0.399,0.12c-0.2,0.06-0.41,0.13-0.61,0.21
				c-0.31,0.109-0.608,0.24-0.898,0.38c-0.051,0.02-0.102,0.04-0.15,0.06c-0.31,0.15-0.609,0.32-0.899,0.5
				c-0.561,0.33-1.101,0.71-1.609,1.141c-0.061,0.05-0.11,0.09-0.16,0.149c-0.029,0.021-0.05,0.04-0.08,0.07l-0.08,0.08
				c-0.04,0.03-0.079,0.06-0.119,0.1c-0.149,0.141-0.29,0.28-0.431,0.431c-0.14,0.14-0.271,0.279-0.399,0.43
				c-0.08,0.08-0.149,0.17-0.221,0.25c-0.189,0.229-0.37,0.46-0.54,0.689c-0.33,0.461-0.63,0.931-0.89,1.41
				c-0.29,0.53-0.53,1.07-0.729,1.63c-0.101,0.301-0.189,0.601-0.271,0.9c-0.07,0.25-0.13,0.49-0.181,0.74
				c-0.021,0.1-0.051,0.21-0.08,0.31c-0.029,0.101-0.069,0.2-0.101,0.3c-0.069,0.19-0.17,0.37-0.279,0.551
				c-0.16,0.27-0.351,0.52-0.591,0.75c-0.069,0.08-0.148,0.159-0.239,0.229c-0.021,0.021-0.029,0.03-0.05,0.05
				c-0.24,0.21-0.521,0.391-0.811,0.521c-0.101,0.05-0.21,0.09-0.311,0.13c-0.449,0.19-0.931,0.29-1.381,0.29
				c-0.188,0-0.39-0.021-0.76-0.08l-0.34-0.11H7.81c-0.101-0.029-0.199-0.06-0.29-0.1c-0.21-0.07-0.399-0.17-0.59-0.28
				c-0.28-0.16-0.551-0.359-0.78-0.58c-0.159-0.16-0.319-0.33-0.449-0.51c-0.07-0.09-0.13-0.189-0.189-0.28
				c-0.061-0.09-0.12-0.189-0.171-0.29c-0.27-0.5-0.409-1.05-0.409-1.58l0.021-0.14v-0.06l0.09-0.69v-0.01
				c0.189-0.92,0.431-1.82,0.75-2.69c0.24-0.689,0.521-1.35,0.84-2c0.091-0.17,0.17-0.34,0.271-0.5c0.03-0.08,0.07-0.16,0.12-0.239
				c0.12-0.24,0.25-0.471,0.391-0.69c0.16-0.27,0.319-0.53,0.489-0.79c0.511-0.78,1.07-1.53,1.689-2.229
				c0.2-0.23,0.41-0.461,0.631-0.681c0.21-0.229,0.43-0.45,0.659-0.66c0.221-0.21,0.45-0.42,0.69-0.63
				c0.079-0.08,0.159-0.149,0.239-0.21c2-1.7,4.319-2.979,6.75-3.72l0.08-0.021c0.101-0.04,0.21-0.069,0.311-0.1l2.88-0.63
				c0.46-0.061,0.92-0.11,1.38-0.13c0.24-0.021,0.471-0.03,0.7-0.04c0.3-0.01,0.601-0.021,0.899-0.01c0.011-0.011,0.011,0,0.021,0
				c0.28,0,0.569,0.01,0.851,0.029c0.641,0.03,1.279,0.09,1.92,0.19c0.34,0.05,0.67,0.11,1.011,0.18c0.34,0.07,0.68,0.141,1.01,0.23
				c0.12,0.029,0.25,0.06,0.37,0.109c0.01,0,0.01,0,0.021,0c0.529,0.141,1.061,0.301,1.569,0.5c0.141,0.051,0.28,0.101,0.41,0.17
				c0.819,0.32,1.609,0.7,2.39,1.15h0.011c0.601,0.34,1.181,0.71,1.75,1.12c0.279,0.2,0.569,0.41,0.84,0.63
				c0.109,0.08,0.21,0.16,0.311,0.25c0.101,0.09,0.21,0.18,0.32,0.271c0.21,0.18,0.42,0.359,0.619,0.55l0.04,0.04
				c0.229,0.21,0.45,0.43,0.67,0.66c0.021,0.02,0.04,0.029,0.051,0.05H39c0.84,0.87,1.62,1.85,2.34,2.91
				c0.311,0.47,0.601,0.96,0.86,1.46c0.18,0.33,0.35,0.67,0.51,1.02s0.32,0.7,0.46,1.061c0.11,0.289,0.221,0.579,0.32,0.88
				c0,0,0,0,0,0.01c0.18,0.52,0.34,1.05,0.479,1.59c0.199,0.75,0.351,1.53,0.449,2.32c0.09,0.739,0.141,1.489,0.141,2.26
				C44.58,25.196,44.56,25.797,44.51,26.406z"/>
			<path fill="#231F20" d="M0.39,24.217c0.75,2.6,2.659,4.74,5.04,5.63C2.99,28.807,1.16,26.727,0.39,24.217z M0.18,19.957
				c0.029-0.07,0.05-0.15,0.069-0.221c0.33-1.63,0.86-3.27,1.54-4.83C1.07,16.497,0.54,18.187,0.18,19.957z M4.43,10.326
				C5,9.547,5.61,8.797,6.27,8.087C5.61,8.797,4.99,9.547,4.43,10.326z M11.689,30.127c1.091-0.36,2.109-0.92,2.971-1.681
				C13.74,29.196,12.74,29.757,11.689,30.127z M17.62,23.477c-0.05,0.24-0.101,0.47-0.17,0.7c0.08-0.22,0.13-0.46,0.18-0.69
				c0.07-0.34,0.16-0.67,0.271-0.989C17.78,22.816,17.689,23.146,17.62,23.477z M23.08,67.816l0.08,0.25
				c0.01-0.2,0.04-0.399,0.069-0.601l0.069-0.36L23.08,67.816z M25.95,17.856c-2.311-0.46-4.721,0.3-6.41,2.05v0.011
				c1.649-1.73,4.13-2.5,6.49-2.021c0.1,0.021,0.199,0.04,0.29,0.061C26.189,17.917,26.07,17.887,25.95,17.856z M29.57,0.486
				c-0.4-0.08-0.812-0.149-1.221-0.21c0.409,0.07,0.811,0.141,1.221,0.221c0.239,0.05,0.479,0.1,0.72,0.159
				C30.05,0.587,29.81,0.537,29.57,0.486z M31.58,26.326l-3.931,19.421l3.95-19.41c0.04-0.23,0.08-0.46,0.09-0.7
				C31.67,25.866,31.63,26.097,31.58,26.326z M30.21,77.598c-0.521-0.101-1.021-0.25-1.489-0.431c0.479,0.188,0.979,0.34,1.51,0.449
				c0.091,0.021,0.181,0.03,0.271,0.04C30.41,77.637,30.31,77.616,30.21,77.598z M36.46,76.587c0.15-0.069,0.3-0.16,0.439-0.261
				c0.04-0.029,0.08-0.051,0.109-0.09C36.83,76.355,36.649,76.477,36.46,76.587z M32,77.775c-0.271,0-0.54-0.02-0.8-0.039
				c-0.051,0-0.11,0-0.181-0.01c0.33,0.039,0.66,0.069,1,0.069c1.359,0,2.7-0.312,3.92-0.931C34.74,77.445,33.399,77.775,32,77.775z
				 M39,4.597c-1.05-0.76-2.149-1.43-3.3-2c1.149,0.59,2.239,1.26,3.29,2.03c0.609,0.41,1.199,0.859,1.779,1.34
				C40.2,5.477,39.61,5.017,39,4.597z M28.18,69.877c-0.131-0.5-0.149-1.029-0.061-1.57l0.04-0.199l0.04-0.221l-0.101,0.471
				c-0.091,0.521-0.061,1.039,0.069,1.529c0.13,0.551,0.391,1.061,0.75,1.5C28.57,70.945,28.32,70.438,28.18,69.877z M36.18,68.146
				l0.01-0.011l1.069-5.3L36.18,68.146z M44.56,24.597c0-0.771-0.051-1.521-0.141-2.26c-0.1-0.79-0.25-1.57-0.449-2.32
				c-0.141-0.54-0.301-1.07-0.479-1.59c0.17,0.51,0.33,1.04,0.46,1.58c0.199,0.77,0.35,1.55,0.46,2.33c0.09,0.75,0.14,1.5,0.14,2.26
				c0.011,0.64-0.01,1.28-0.069,1.94c-0.01,0.289-0.029,0.59-0.069,0.88c0.05-0.311,0.08-0.63,0.101-0.95v-0.061
				C44.56,25.797,44.58,25.196,44.56,24.597z M44.16,28.887l-0.181,0.9l-0.479,2.35l-1.08,5.3l-0.479,2.379l-1.079,5.301
				l-0.48,2.369l-1.08,5.302l-0.479,2.38l-1.08,5.3l-0.479,2.37h0.01l0.479-2.37l1.08-5.3l0.479-2.38l1.08-5.302l0.479-2.369
				l1.08-5.301l0.479-2.379l1.079-5.3l0.48-2.36l0.18-0.87c0.04-0.199,0.08-0.409,0.11-0.609C44.24,28.497,44.2,28.687,44.16,28.887
				z M7.83,25.446l0.34,0.11c0.37,0.06,0.57,0.08,0.761,0.08c0.449,0,0.931-0.1,1.38-0.29C9.59,25.606,8.75,25.656,7.83,25.446z
				 M21.83,5.137l-2.88,0.63c-0.101,0.03-0.21,0.06-0.311,0.1l3.181-0.72c0.47-0.06,0.93-0.109,1.39-0.14
				C22.75,5.026,22.29,5.076,21.83,5.137z M42.2,15.457c-0.261-0.5-0.551-0.99-0.86-1.46c-0.72-1.061-1.5-2.04-2.34-2.91h-0.01
				c0.84,0.89,1.63,1.87,2.34,2.95c0.311,0.46,0.59,0.93,0.859,1.42c0.181,0.33,0.351,0.67,0.521,1.02
				C42.55,16.127,42.38,15.787,42.2,15.457z M43.17,17.537c-0.14-0.36-0.3-0.711-0.46-1.061c0.16,0.35,0.311,0.7,0.45,1.061
				c0.109,0.289,0.22,0.579,0.33,0.88C43.39,18.116,43.28,17.826,43.17,17.537z M7.41,14.807c-0.141,0.22-0.271,0.45-0.391,0.69
				c0.13-0.23,0.271-0.471,0.41-0.7c0.149-0.26,0.311-0.521,0.47-0.78C7.729,14.276,7.57,14.537,7.41,14.807z M5.35,23.406
				c-0.271-0.529-0.41-1.119-0.399-1.72l-0.021,0.14c0,0.53,0.141,1.08,0.409,1.58c0.051,0.101,0.11,0.2,0.17,0.29
				C5.45,23.606,5.399,23.507,5.35,23.406z M36.16,21.356c-0.07-0.22-0.15-0.439-0.229-0.66c0.079,0.221,0.149,0.44,0.22,0.66
				c0.091,0.311,0.171,0.63,0.24,0.931C36.33,21.977,36.25,21.667,36.16,21.356z"/>
		</g>
	</g>
	<g id="red_x5F_top">
		<path fill="#FF5656" d="M36.979,9.267h-0.021l-3.2,0.69L6.899,15.736c0.03-0.08,0.07-0.16,0.12-0.239
			c0.12-0.24,0.25-0.471,0.391-0.69c0.16-0.27,0.319-0.53,0.489-0.79c0.511-0.78,1.07-1.53,1.689-2.229
			c0.2-0.23,0.41-0.461,0.631-0.681c0.21-0.229,0.43-0.45,0.659-0.66c0.221-0.21,0.45-0.42,0.69-0.63
			c0.079-0.08,0.159-0.149,0.239-0.21h0.021l16-3.45l2.16-0.46c0.01,0,0.01,0,0.02,0c0.53,0.141,1.062,0.301,1.57,0.5
			c0.141,0.051,0.28,0.101,0.41,0.17c0.819,0.32,1.609,0.7,2.39,1.15h0.011c0.601,0.34,1.181,0.71,1.75,1.12
			C36.42,8.837,36.71,9.047,36.979,9.267z"/>
	</g>
	<g id="right_x5F_green">
		<path fill="#69F4A5" d="M42.2,15.457h-0.011l-3.649,0.8l-4.569,0.99H33.96c-0.279-0.36-0.59-0.71-0.93-1.03
			c-0.311-0.311-0.641-0.601-0.98-0.87c-0.859-0.68-1.81-1.23-2.829-1.63c-0.051-0.021-0.091-0.04-0.141-0.061
			c-0.229-0.1-0.46-0.189-0.71-0.26l7.26-1.58l3.36-0.729H39c0.84,0.87,1.62,1.85,2.34,2.91
			C41.649,14.467,41.939,14.957,42.2,15.457z"/>
	</g>
	<g id="left_x5F_green">
		<path fill="#69F4A5" d="M16.55,15.927c-0.04,0.03-0.079,0.06-0.119,0.1c-0.149,0.141-0.29,0.28-0.431,0.431
			c-0.14,0.14-0.271,0.279-0.399,0.43c-0.08,0.08-0.149,0.17-0.221,0.25c-0.189,0.229-0.37,0.46-0.54,0.689
			c-0.33,0.461-0.63,0.931-0.89,1.41c-0.29,0.53-0.53,1.07-0.729,1.63c-0.101,0.301-0.189,0.601-0.271,0.9l-0.011,0.01l-7.59,1.63
			H5.34c-0.27-0.5-0.409-1.05-0.409-1.58l0.021-0.14v-0.06l0.09-0.69v-0.01c0.189-0.92,0.431-1.82,0.75-2.69h0.021l10.721-2.31
			H16.55z"/>
	</g>
	<g id="red1">
		<path fill="#FF5656" d="M44.42,22.337h-0.01l-4,0.87l-3.761,0.819h-0.01c-0.011-0.18-0.029-0.35-0.051-0.529
			c-0.04-0.4-0.109-0.801-0.199-1.21c-0.069-0.301-0.149-0.62-0.24-0.931c-0.069-0.22-0.141-0.439-0.22-0.66
			c-0.189-0.5-0.399-0.979-0.649-1.439v-0.01l4.109-0.891l3.771-0.819h0.01c0.11,0.289,0.221,0.579,0.32,0.88c0,0,0,0,0,0.01
			c0.18,0.521,0.34,1.05,0.479,1.59C44.17,20.767,44.32,21.547,44.42,22.337z"/>
	</g>
	<g id="green1">
		<path fill="#69F4A5" d="M44.51,26.406v0.061c-0.02,0.32-0.05,0.64-0.1,0.95c-0.03,0.29-0.08,0.59-0.13,0.88
			c-0.03,0.2-0.07,0.41-0.11,0.609l-0.18,0.87l-0.011,0.011l-4.109,0.88l-4.28,0.909l-0.029,0.011l0.87-4.271
			c0.069-0.33,0.119-0.67,0.149-1.01l0.03-0.01l3.88-0.83l4.06-0.87h0.011C44.58,25.196,44.56,25.797,44.51,26.406z"/>
	</g>
	<g id="red2">
		<polygon fill="#FF5656" points="43.51,32.137 42.43,37.437 42.42,37.437 38.41,38.307 34.03,39.257 34.01,39.267 35.08,33.957 
			35.11,33.946 39.42,33.017 43.5,32.137 		"/>
	</g>
	<g id="green2">
		<polygon fill="#69F4A5" points="41.95,39.816 40.87,45.116 40.86,45.116 36.96,45.957 32.47,46.927 32.45,46.938 33.53,41.637 
			33.55,41.627 37.96,40.677 41.939,39.816 		"/>
	</g>
	<g id="red3">
		<polygon fill="#FF5656" points="40.39,47.486 39.31,52.787 39.3,52.787 35.5,53.616 30.899,54.605 31.97,49.307 31.979,49.297 
			36.51,48.326 40.38,47.486 		"/>
	</g>
	<g id="green3">
		<polygon fill="#69F4A5" points="38.83,55.167 37.75,60.467 37.74,60.467 34.05,61.268 29.34,62.275 30.42,56.986 30.42,56.977 
			35.06,55.977 38.82,55.167 		"/>
	</g>
	<g id="red4">
		<path fill="#FF5656" d="M37.26,62.837l-1.069,5.3l-0.01,0.01l-3.561,0.771l-4.439,0.96l-0.011,0.011
			c-0.13-0.49-0.16-1.011-0.069-1.531l0.101-0.469l0.66-3.221v-0.011l4.75-1.029L37.26,62.837z"/>
	</g>
</g>
</svg>
