<?xml version="1.0" encoding="utf-8"?>
<!-- Generator: Adobe Illustrator 16.0.0, SVG Export Plug-In . SVG Version: 6.00 Build 0)  -->
<!DOCTYPE svg PUBLIC "-//W3C//DTD SVG 1.1//EN" "http://www.w3.org/Graphics/SVG/1.1/DTD/svg11.dtd">
<svg version="1.1" id="Icons" xmlns="http://www.w3.org/2000/svg" xmlns:xlink="http://www.w3.org/1999/xlink" x="0px" y="0px"
	 width="72.529px" height="67.041px" viewBox="0 0 72.529 67.041" enable-background="new 0 0 72.529 67.041" xml:space="preserve">
<polygon id="bow_x5F_left" fill="#FFFFFF" points="51.236,7.028 40.476,21.543 35.565,18.241 38.933,7.787 47.164,4.245 "/>
<polygon id="bow_x5F_right" fill="#FFFFFF" points="24.515,9.083 34.015,19.333 30.327,22.208 22.577,17.927 21.421,11.458 "/>
<path id="outline" fill="#231F20" d="M70.06,20.791H43.991c0.898-0.74,1.788-1.551,2.639-2.431c5.649-5.76,9.381-13.54,5.58-17.27
	c-0.539-0.53-1.76-1.37-3.779-1c-4.17,0.79-10.04,6.649-14.2,13.859c-1.38-1.699-3.17-3.77-4.979-5.289
	c-3.871-3.23-6.41-2.511-7.86-1.341c-3.521,2.87-3.521,8.521,0.01,12.87c0.17,0.21,0.342,0.41,0.521,0.601H2.48
	C1.11,20.79,0,21.89,0,23.26V34.53c0,1.369,1.109,2.471,2.479,2.471h5.03v27.561c0,1.369,1.1,2.479,2.47,2.479h52.569
	c1.371,0,2.479-1.11,2.479-2.479V37.001h5.03c1.37,0,2.47-1.102,2.47-2.471V23.26C72.53,21.891,71.43,20.791,70.06,20.791z
	 M48.84,5.101c0.02,1.5-1.5,5.46-5.74,9.79c-2.301,2.34-4.51,3.88-6.29,4.81C40.81,11.081,46.629,6.03,48.84,5.101z M41.299,62.091
	H34.99v-25.09h6.309V62.091z M37.549,25.74v6.311H31.23V25.74H37.549z M24.17,11.291c0.379,0.029,1.97,0.54,6.42,6.029
	c0.22,0.271,0.6,0.74,0.91,1.15c-0.09,0.07-0.19,0.15-0.301,0.24l-0.33,0.26l-0.011,0.01c-0.729,0.59-1.76,0.46-2.311,0.32
	c-1.18-0.29-2.389-1.11-3.31-2.24C23.37,14.761,23.36,12.11,24.17,11.291z M4.95,32.051V25.74H26.28v6.311H4.95z M12.46,37.001
	H30.03v25.09H12.46V37.001z M60.07,62.091H46.25v-25.09H60.07V62.091z M67.581,32.051H42.5V25.74h25.08L67.581,32.051L67.581,32.051
	z"/>
<rect id="top_x5F_left_x5F_purple" x="4.95" y="25.74" fill="#FFFFFF" width="21.329" height="6.311"/>
<rect id="top_x5F_right_x5F_purpe" x="42.5" y="25.74" fill="#FFFFFF" width="25.08" height="6.311"/>
<rect id="bottom_x5F_left_x5F_purple" x="12.46" y="37.001" fill="#FFFFFF" width="17.569" height="25.09"/>
<rect id="bottp_x2C__x5F_right_x5F_purple" x="46.25" y="37.001" fill="#FFFFFF" width="13.818" height="25.09"/>
<g id="white_x5F_bottom">
	<rect x="34.991" y="37.001" fill="#FAFCFB" width="6.309" height="25.09"/>
</g>
<g id="white_x5F_top">
	<rect x="31.23" y="25.74" fill="#FFFFFF" width="6.319" height="6.311"/>
</g>
</svg>
