<?xml version="1.0" encoding="utf-8"?>
<!-- Generator: Adobe Illustrator 22.1.0, SVG Export Plug-In . SVG Version: 6.00 Build 0)  -->
<svg version="1.0" id="ornament_star" xmlns="http://www.w3.org/2000/svg" xmlns:xlink="http://www.w3.org/1999/xlink" x="0px" y="0px"
	 viewBox="0 0 54.512 75.76" style="enable-background:new 0 0 54.512 75.76;" xml:space="preserve">
<path id="star" style="fill:#669FEB;" d="M46.606,41.852c-0.33-1.036-1.28-1.737-2.352-1.737H33.055l-3.442-10.804
	c-0.33-1.036-1.281-1.747-2.352-1.747h-0.009c-1.07,0-2.021,0.711-2.352,1.747l-3.442,10.804H10.267
	c-1.081,0-2.032,0.701-2.362,1.737c-0.331,1.047,0.03,2.186,0.901,2.816l9.077,6.637l-3.493,10.803
	c-0.35,1.057,0.02,2.207,0.911,2.846c0.43,0.315,0.941,0.467,1.441,0.467c0.53,0,1.061-0.173,1.51-0.517l8.997-6.648l8.357,6.159
	l0.71,0.528c0.861,0.641,2.042,0.641,2.912,0c0.872-0.64,1.231-1.778,0.901-2.815l-1.04-3.232v-0.011l-2.442-7.561l4.754-3.496
	l1.461-1.077h0.01l2.832-2.084C46.576,44.027,46.936,42.9,46.606,41.852z M31.384,51.143l1.652,5.161l-4.324-3.2
	c-0.43-0.316-0.941-0.476-1.452-0.476c-0.51,0-1.03,0.16-1.461,0.476l-4.303,3.18l1.631-5.062c0.09-0.264,0.13-0.588,0.13-0.864
	c0-0.67-0.6-1.605-1.06-2.073l-4.274-3.14h5.333c1.072,0,2.022-0.702,2.352-1.738l1.65-5.143l1.642,5.143
	c0.33,1.036,1.281,1.738,2.351,1.738h5.344l-4.313,3.17C31.404,48.967,31.044,50.107,31.384,51.143z"/>
<path id="circle_inside" style="fill:#28774A;" d="M27.461,25.605h-0.01c-0.06-0.009-0.13-0.009-0.191-0.009
	c-12.299,0-22.307,10.144-22.307,22.599c0,12.468,10.007,22.61,22.307,22.61c0.061,0,0.131,0,0.191-0.009h0.01
	c12.2-0.103,22.098-10.196,22.098-22.601C49.558,35.8,39.66,25.708,27.461,25.605z M45.705,44.635l-2.832,2.08h-0.01l-1.461,1.075
	l-4.754,3.489l2.442,7.546v0.011l1.04,3.226c0.331,1.034-0.029,2.171-0.901,2.809c-0.871,0.639-2.051,0.639-2.912,0l-0.71-0.527
	l-8.357-6.147l-8.997,6.635c-0.45,0.343-0.98,0.516-1.51,0.516c-0.5,0-1.011-0.151-1.441-0.466
	c-0.891-0.638-1.261-1.786-0.911-2.841l3.493-10.782l-9.077-6.624c-0.871-0.629-1.232-1.765-0.901-2.81
	c0.33-1.034,1.281-1.734,2.362-1.734h11.189l3.442-10.783c0.33-1.034,1.282-1.744,2.352-1.744h0.009c1.072,0,2.022,0.71,2.352,1.744
	l3.442,10.783h11.199c1.071,0,2.021,0.7,2.352,1.734C46.936,42.87,46.576,43.996,45.705,44.635z"/>
<path id="silver" style="fill:#A7A9AC;" d="M30.749,21.7c-1.141-0.15-2.302-0.231-3.483-0.231c-0.129,0-0.259,0-0.389,0.01
	c-1.051,0.01-2.092,0.081-3.103,0.221l1.561-5.145c0.13-0.45,0.541-0.75,1.011-0.75h0.019c0-0.021-0.009-0.052-0.009-0.07
	c0.3,0.05,0.601,0.07,0.91,0.07h0.912c0.471,0,0.88,0.3,1.011,0.75L30.749,21.7z"/>
<g id="outline">
	<path style="fill:#231F20;" d="M36.208,22.825l-2.376-7.694c-0.237-0.778-0.621-1.468-1.124-2.061
		c1.025-1.313,1.646-3.005,1.646-4.844c0-4.172-3.184-7.567-7.089-7.567c-3.913,0-7.097,3.395-7.097,7.567
		c0,1.839,0.621,3.531,1.646,4.844c-0.504,0.593-0.888,1.283-1.124,2.061l-2.376,7.694C7.893,26.463,0.411,36.285,0.411,47.791
		c0,14.608,12.047,26.494,26.854,26.494c14.799,0,26.846-11.886,26.846-26.494C54.111,36.285,46.628,26.463,36.208,22.825z
		 M27.265,5.475c1.193,0,2.199,1.264,2.199,2.751c0,1.498-1.006,2.753-2.199,2.753c-1.202,0-2.207-1.256-2.207-2.753
		C25.058,6.739,26.063,5.475,27.265,5.475z M30.696,21.532c-1.124-0.146-2.268-0.224-3.431-0.224c-0.127,0-0.255,0-0.383,0.01
		c-1.036,0.009-2.061,0.079-3.057,0.214l1.538-5c0.128-0.438,0.533-0.729,0.996-0.729h0.019c0-0.02-0.009-0.05-0.009-0.068
		c0.295,0.048,0.592,0.068,0.896,0.068h0.898c0.464,0,0.867,0.291,0.996,0.729 M27.463,69.461h-0.01
		c-0.059,0.009-0.128,0.009-0.188,0.009c-12.116,0-21.974-9.725-21.974-21.679c0-11.943,9.858-21.669,21.974-21.669
		c0.06,0,0.129,0,0.188,0.009h0.01c12.018,0.099,21.768,9.775,21.768,21.66C49.231,59.685,39.481,69.362,27.463,69.461z"/>
</g>
</svg>
