<?xml version="1.0" encoding="utf-8"?>
<!-- Generator: Adobe Illustrator 16.0.0, SVG Export Plug-In . SVG Version: 6.00 Build 0)  -->
<!DOCTYPE svg PUBLIC "-//W3C//DTD SVG 1.1//EN" "http://www.w3.org/Graphics/SVG/1.1/DTD/svg11.dtd">
<svg version="1.1" id="Layer_2" xmlns="http://www.w3.org/2000/svg" xmlns:xlink="http://www.w3.org/1999/xlink" x="0px" y="0px"
	 width="54.47px" height="75.7px" viewBox="0 0 54.47 75.7" style="enable-background:new 0 0 54.47 75.7;" xml:space="preserve">
<ellipse id="white_top" style="fill:#FFFFFF;" cx="27.618" cy="7.796" rx="3.111" ry="3.75"/>
<path id="outline" style="fill:#231F20;" d="M36.314,22.78l-2.399-7.9c-0.25-0.8-0.641-1.52-1.15-2.13
	c1.04-1.351,1.67-3.09,1.67-4.97c0-4.29-3.229-7.78-7.189-7.78c-3.971,0-7.19,3.49-7.19,7.78c0,1.89,0.62,3.63,1.66,4.979
	c-0.51,0.61-0.9,1.32-1.14,2.12l-2.41,7.91c-10.57,3.74-18.16,13.84-18.16,25.67c0,15.02,12.22,27.24,27.24,27.24
	c15.02,0,27.229-12.221,27.229-27.24C54.475,36.63,46.885,26.53,36.314,22.78z M27.245,4.95c1.21,0,2.239,1.3,2.239,2.83
	c0,1.54-1.029,2.83-2.239,2.83c-1.221,0-2.24-1.29-2.24-2.83C25.005,6.25,26.024,4.95,27.245,4.95z M25.314,16.32
	c0.13-0.45,0.54-0.75,1.011-0.75h0.02c0-0.021-0.01-0.04-0.01-0.061c0.3,0.04,0.6,0.061,0.91,0.061h0.909
	c0.471,0,0.881,0.3,1.021,0.75l1.56,5.14c-1.14-0.15-2.31-0.23-3.489-0.23c-0.131,0-0.261,0-0.391,0.011
	c-1.05,0.01-2.09,0.08-3.1,0.22L25.314,16.32z M27.444,70.74c-0.069,0.01-0.13,0.01-0.199,0.01c-12.29,0-22.29-10-22.29-22.29
	c0-12.28,10-22.28,22.29-22.28c0.069,0,0.13,0,0.199,0.01c12.2,0.101,22.08,10.061,22.08,22.271
	C49.524,60.68,39.645,70.64,27.444,70.74z"/>
<g id="insisde_x5F_star">
	<path style="fill:#6ED9FF;" d="M32.305,49.93l1.86,2.54l-3.13-0.34c-1.12-0.13-2.101,0.48-2.53,1.46l-1.27,2.89l-1.28-2.89
		c-0.39-0.9-1.29-1.479-2.26-1.479c-0.091,0-0.181,0.01-0.271,0.02l-3.13,0.34l1.86-2.54c0.64-0.87,0.64-2.06,0-2.93l-1.86-2.54
		l3.13,0.34c1.11,0.11,2.101-0.479,2.53-1.46l1.28-2.89l1.27,2.89c0.43,0.98,1.41,1.56,2.53,1.46l3.14-0.34L32.305,47
		C31.675,47.87,31.675,49.06,32.305,49.93z"/>
</g>
<path id="star_x5F_outline" style="fill:#231F20;" d="M40.911,53.28l-3.53-4.82l3.53-4.82l0.58-0.79c0.58-0.79,0.64-1.85,0.14-2.7
	c-0.45-0.77-1.29-1.239-2.15-1.239c-0.09,0-0.17,0.01-0.26,0.02l-6.91,0.75l-2.81-6.359c-0.79-1.801-3.74-1.801-4.53,0l-2.81,6.359
	l-6.91-0.75c-0.94-0.08-1.92,0.37-2.41,1.22c-0.49,0.851-0.43,1.91,0.15,2.7l4.1,5.61l-4.1,5.61c-0.58,0.8-0.641,1.859-0.15,2.71
	c0.49,0.84,1.44,1.31,2.41,1.22l6.91-0.75l2.81,6.36c0.4,0.899,1.28,1.479,2.271,1.479c0.979,0,1.869-0.58,2.26-1.479l2.81-6.36
	l6.91,0.75c0.08,0.01,0.17,0.02,0.26,0.02c0.88,0,1.71-0.46,2.15-1.239c0.5-0.851,0.44-1.91-0.14-2.71L40.911,53.28z M32.311,49.93
	l1.86,2.54l-3.13-0.34c-1.12-0.13-2.101,0.48-2.53,1.46l-1.27,2.89l-1.28-2.89c-0.39-0.9-1.29-1.479-2.26-1.479
	c-0.091,0-0.181,0.01-0.271,0.02l-3.13,0.34l1.86-2.54c0.64-0.87,0.64-2.06,0-2.93l-1.86-2.54l3.13,0.34
	c1.11,0.11,2.101-0.479,2.53-1.46l1.28-2.89l1.27,2.89c0.43,0.98,1.41,1.56,2.53,1.46l3.14-0.34L32.311,47
	C31.681,47.87,31.681,49.06,32.311,49.93z"/>
<path id="grey_top" style="fill:#A7A9AC;" d="M30.729,21.46c-1.14-0.15-2.31-0.23-3.489-0.23c-0.131,0-0.261,0-0.391,0.011
	c-1.05,0.01-2.09,0.08-3.1,0.22l1.56-5.14c0.13-0.45,0.54-0.75,1.011-0.75h0.02c0-0.021-0.01-0.04-0.01-0.061
	c0.3,0.04,0.6,0.061,0.91,0.061h0.909c0.471,0,0.881,0.3,1.021,0.75L30.729,21.46z"/>
<g id="circle_inside">
	<path style="fill:#FFDB43;" d="M27.444,26.254c-0.069-0.01-0.13-0.01-0.199-0.01c-12.29,0-22.29,10-22.29,22.28
		c0,12.29,10,22.29,22.29,22.29c0.069,0,0.13,0,0.199-0.01c12.2-0.101,22.08-10.061,22.08-22.28
		C49.524,36.314,39.645,26.354,27.444,26.254z M40.915,43.704l-3.53,4.82l3.53,4.82l0.58,0.79c0.58,0.8,0.64,1.859,0.14,2.71
		c-0.44,0.779-1.271,1.239-2.15,1.239c-0.09,0-0.18-0.01-0.26-0.02l-6.91-0.75l-2.81,6.36c-0.391,0.899-1.28,1.479-2.26,1.479
		c-0.99,0-1.87-0.58-2.271-1.479l-2.81-6.36l-6.91,0.75c-0.97,0.09-1.92-0.38-2.41-1.22c-0.49-0.851-0.43-1.91,0.15-2.71l4.1-5.61
		l-4.1-5.61c-0.58-0.79-0.641-1.85-0.15-2.7c0.49-0.85,1.47-1.3,2.41-1.22l6.91,0.75l2.81-6.359c0.79-1.801,3.74-1.801,4.53,0
		l2.81,6.359l6.91-0.75c0.09-0.01,0.17-0.02,0.26-0.02c0.86,0,1.7,0.47,2.15,1.239c0.5,0.851,0.44,1.91-0.14,2.7L40.915,43.704z"/>
</g>
</svg>
