<?xml version="1.0" encoding="utf-8"?>
<!-- Generator: Adobe Illustrator 16.0.0, SVG Export Plug-In . SVG Version: 6.00 Build 0)  -->
<!DOCTYPE svg PUBLIC "-//W3C//DTD SVG 1.1//EN" "http://www.w3.org/Graphics/SVG/1.1/DTD/svg11.dtd">
<svg version="1.1" id="Icons" xmlns="http://www.w3.org/2000/svg" xmlns:xlink="http://www.w3.org/1999/xlink" x="0px" y="0px"
	 width="54.471px" height="75.7px" viewBox="0 0 54.471 75.7" style="enable-background:new 0 0 54.471 75.7;" xml:space="preserve"
	>
<ellipse id="middle_x5F_circle" style="fill:#E0E0E0;" cx="27.282" cy="48.37" rx="25.75" ry="25.334"/>
<g id="top_x5F_blue">
	<path style="fill:#13E5E0;" d="M49.351,45.75l-8.221-0.83l-19.84-1.99c-1.359-0.13-2.35-1.35-2.22-2.71
		c0.14-1.359,1.34-2.34,2.72-2.21l18.04,1.811l8.29,0.83c0.101,0.27,0.19,0.54,0.29,0.81l0.14,0.46
		c0.221,0.66,0.37,1.34,0.521,2.061C49.19,44.561,49.28,45.15,49.351,45.75z"/>
</g>
<g id="middle_x5F_pink">
	<path style="fill:#DDAFAF;" d="M49.476,50.247l0.02,0.27l-0.11,0.25c-0.029,0.45-0.109,0.87-0.22,1.381
		c-0.03,0.189-0.06,0.369-0.1,0.56l-7.931-0.79l-36.18-3.62c0-0.79,0.021-1.569,0.17-2.51c0.021-0.35,0.07-0.68,0.18-1.18
		c0.07-0.42,0.15-0.82,0.24-1.221l35.8,3.57l8.16,0.81c0.021,0.2,0.021,0.41,0.021,0.61C49.525,49.007,49.495,49.637,49.476,50.247z
		"/>
</g>
<g id="bottom_x5F_pink">
	<path style="fill:#DDAFAF;" d="M15.51,61.09c-0.13,1.28-1.199,2.23-2.46,2.23c-0.079,0-0.17,0-0.25-0.01l-2.38-0.24
		c-1.13-1.28-2.1-2.7-2.87-4.181C7.351,58.51,7.15,58.13,6.98,57.74l6.319,0.64C14.66,58.521,15.65,59.74,15.51,61.09z"/>
</g>
<g id="bottom_x5F_blue">
	<path style="fill:#13E5E0;" d="M45.25,61.57c-0.24,0.34-0.51,0.68-0.79,1.02c-0.92,1.11-1.95,2.15-3.069,3.07
		c-0.17,0.15-0.341,0.29-0.551,0.439h-0.01l-6.24-0.619l-14.71-1.46c-1.359-0.141-2.359-1.351-2.22-2.71
		c0.14-1.36,1.33-2.351,2.71-2.221l17.69,1.771L45.25,61.57z"/>
</g>
<path id="silber_x5F_top" style="fill:#A7A9AC;" d="M30.711,21.44c-0.62-0.07-1.19-0.11-1.7-0.11c-0.7-0.11-1.44-0.16-2.17-0.16
	c-1.03,0-2.08,0.09-3.091,0.24l1.54-5.09c0.141-0.45,0.551-0.75,1.021-0.75h0.02c0-0.021-0.01-0.04-0.01-0.061
	c0.29,0.04,0.59,0.061,0.9,0.061h0.92c0.47,0,0.88,0.3,1.01,0.75L30.711,21.44z"/>
<path id="outline" style="fill:#231F20;" d="M53.936,43v-0.01l-0.011-0.04c-0.17-0.78-0.34-1.53-0.56-2.25l-0.15-0.49
	c-0.229-0.68-0.46-1.34-0.729-2c-0.2-0.479-0.44-0.99-0.65-1.41c-0.33-0.689-0.649-1.34-1.06-1.989l-0.221-0.341
	c-0.409-0.71-0.85-1.399-1.31-2.01c-0.67-0.95-1.42-1.85-2.32-2.79c-0.43-0.479-0.91-0.92-1.35-1.32c-0.83-0.789-1.74-1.5-2.69-2.18
	c-0.6-0.42-1.189-0.81-1.939-1.24l-0.95-0.54c-0.61-0.31-1.22-0.619-1.75-0.829c-0.62-0.301-1.28-0.561-1.94-0.78l-2.399-7.9
	c-0.24-0.8-0.63-1.51-1.141-2.12c1.04-1.35,1.671-3.09,1.671-4.979c0-4.29-3.23-7.78-7.2-7.78c-3.96,0-7.19,3.49-7.19,7.78
	c0,1.88,0.63,3.62,1.67,4.97c-0.51,0.61-0.899,1.33-1.149,2.13l-2.391,7.891c-4.33,1.52-8.18,4.109-11.17,7.51
	c-0.06,0.06-0.12,0.12-0.17,0.18c-0.04,0.05-0.09,0.101-0.13,0.15c-1.91,2.12-3.42,4.56-4.47,7.14c-0.01,0.03-0.03,0.07-0.04,0.1
	c-0.82,1.851-1.42,3.881-1.74,5.881c-0.13,0.59-0.22,1.17-0.25,1.56c-0.01,0.06-0.02,0.11-0.02,0.17c0,0.01,0,0.01,0,0.021
	c-0.141,0.979-0.181,1.97-0.181,2.979c0,1.51,0.13,3.05,0.4,4.53c0,0.05,0.01,0.1,0.02,0.149c0.011,0.04,0.011,0.091,0.021,0.131
	c0.45,2.72,1.359,5.369,2.689,7.84c0,0.01,0.011,0.01,0.011,0.02c0.01,0.03,0.029,0.05,0.04,0.08c0.029,0.05,0.06,0.11,0.09,0.16
	c1.09,2.09,2.5,4.05,4.189,5.81c3.79,4.021,8.62,6.75,13.7,7.82l0.63,0.16c0.82,0.16,1.67,0.31,2.521,0.38
	c0.949,0.12,1.93,0.16,2.92,0.16c0.96,0,1.88-0.04,2.479-0.14l0.65-0.051c0.75-0.08,1.51-0.199,2.2-0.34
	c2.29-0.42,4.54-1.189,6.58-2.229c0.79-0.36,1.58-0.79,2.33-1.261l0.579-0.359c0.37-0.221,0.79-0.5,1.021-0.74
	c0.5-0.33,0.99-0.7,1.479-1.11c1.33-1.09,2.551-2.31,3.641-3.62c0.03-0.029,0.06-0.069,0.09-0.1c0.02-0.02,0.04-0.05,0.05-0.07
	c0.96-1.159,1.79-2.359,2.49-3.569c0.32-0.561,0.63-1.19,0.9-1.771c0.3-0.64,0.569-1.279,0.819-1.88c0.01-0.02,0.01-0.03,0.021-0.05
	c0.35-0.84,0.67-1.76,0.91-2.65c0.229-0.85,0.43-1.79,0.569-2.649c0.12-0.63,0.24-1.261,0.23-1.55c0.04-0.171,0.1-0.421,0.12-0.73
	c0.01-0.08,0.01-0.16,0.01-0.25c0.04-0.71,0.07-1.41,0.07-2.12C54.476,46.63,54.295,44.8,53.936,43z M27.235,4.95
	c1.22,0,2.24,1.3,2.24,2.83c0,1.54-1.021,2.83-2.24,2.83c-1.21,0-2.24-1.29-2.24-2.83C24.995,6.25,26.025,4.95,27.235,4.95z
	 M25.305,16.32c0.141-0.45,0.551-0.75,1.021-0.75h0.02c0-0.021-0.01-0.04-0.01-0.061c0.29,0.04,0.59,0.061,0.9,0.061h0.92
	c0.47,0,0.88,0.3,1.01,0.75l1.561,5.12c-0.62-0.07-1.19-0.11-1.7-0.11c-0.7-0.11-1.44-0.16-2.17-0.16c-1.03,0-2.08,0.09-3.091,0.24
	L25.305,16.32z M20.905,27.09c0.51-0.16,1.05-0.279,1.58-0.41c1.529-0.35,3.1-0.479,4.939-0.5h0.03c0.29,0,0.62,0,1.14,0.07
	c1.16,0.03,2.36,0.19,3.681,0.5c0.35,0.08,0.7,0.16,1.05,0.29l0.8,0.23c0.69,0.22,1.351,0.449,2.12,0.81
	c0.52,0.22,1.01,0.47,1.49,0.71l0.609,0.34c0.601,0.351,1.15,0.71,1.681,1.08c0.75,0.53,1.47,1.101,2.17,1.76
	c0.35,0.33,0.71,0.641,1.16,1.13l-7.98-0.8l-20.93-2.09C16.396,28.84,18.565,27.79,20.905,27.09z M49.495,50.6l-0.11,0.25
	c-0.029,0.45-0.109,0.87-0.22,1.381c-0.03,0.189-0.06,0.369-0.1,0.56c-0.101,0.58-0.23,1.16-0.38,1.7
	c-0.03,0.109-0.061,0.229-0.101,0.34l-7.45-0.73c-0.13-0.01-0.27-0.02-0.399,0c-1.21,0.061-2.181,1-2.311,2.221
	c-0.08,0.84,0.261,1.62,0.86,2.13c0.37,0.32,0.84,0.53,1.37,0.58l5.899,0.58c-0.01,0.01-0.01,0.02-0.02,0.029
	c-0.37,0.641-0.8,1.29-1.28,1.931c-0.24,0.34-0.51,0.68-0.79,1.02c-0.92,1.11-1.95,2.15-3.069,3.07
	c-0.17,0.15-0.341,0.29-0.551,0.439h-0.01c-0.22,0.171-0.46,0.351-0.79,0.58c-0.17,0.16-0.43,0.341-0.68,0.471l-0.47,0.3
	c-0.57,0.37-1.17,0.7-1.881,1.02c-1.72,0.88-3.52,1.49-5.399,1.841c-0.59,0.119-1.18,0.21-2.22,0.319c-0.66,0.08-1.32,0.13-2,0.13
	c-0.811,0.021-1.66-0.029-2.62-0.14c-0.7-0.07-1.4-0.2-1.73-0.23l-0.56-0.149c-4.37-0.94-8.32-3.17-11.431-6.47
	c-0.22-0.23-0.43-0.46-0.63-0.7c-1.13-1.28-2.1-2.7-2.87-4.181c-0.199-0.38-0.399-0.76-0.569-1.149c-0.34-0.71-0.63-1.44-0.88-2.18
	l27.5,2.76c0.09,0.01,0.17,0.01,0.25,0.01c1.26,0,2.34-0.95,2.46-2.23c0.14-1.359-0.851-2.569-2.21-2.71L5.055,50.47
	c-0.069-0.67-0.1-1.35-0.1-2.01v-0.08c0-0.79,0.021-1.569,0.17-2.51c0.021-0.35,0.07-0.68,0.18-1.18c0.07-0.42,0.15-0.82,0.24-1.221
	c0.16-0.71,0.34-1.39,0.57-2.05l8.11,0.811c0.079,0,0.159,0.01,0.25,0.01c1.25,0,2.329-0.95,2.46-2.23
	c0.13-1.359-0.86-2.58-2.221-2.71l-6.39-0.63c0.42-0.68,0.88-1.33,1.39-1.96l29.16,2.9l8.24,0.819l0.09,0.16
	c0.06,0.12,0.12,0.24,0.17,0.37c0.19,0.37,0.38,0.78,0.53,1.14c0.08,0.181,0.149,0.36,0.22,0.551c0.101,0.27,0.19,0.54,0.29,0.81
	l0.14,0.46c0.221,0.66,0.37,1.34,0.521,2.061c0.12,0.58,0.21,1.17,0.28,1.77c0.09,0.7,0.14,1.4,0.149,2.1
	c0.021,0.2,0.021,0.41,0.021,0.61c0,0.63-0.03,1.26-0.05,1.87L49.495,50.6z"/>
</svg>
