<?xml version="1.0" encoding="utf-8"?>
<!-- Generator: Adobe Illustrator 22.1.0, SVG Export Plug-In . SVG Version: 6.00 Build 0)  -->
<svg version="1.1" id="Layer_12" xmlns="http://www.w3.org/2000/svg" xmlns:xlink="http://www.w3.org/1999/xlink" x="0px" y="0px"
	 viewBox="0 0 54.512 75.76" style="enable-background:new 0 0 54.512 75.76;" xml:space="preserve">
<g id="ornament_heart">
	<g>
		<g>
			<path style="fill:#A7A9AC;" d="M30.437,23.699c-0.214-0.026-0.429-0.052-0.635-0.069c-0.395-0.034-0.763-0.06-0.824-0.034
				c-0.617-0.095-1.244-0.137-1.87-0.137c-0.875,0-1.767,0.085-2.66,0.223l1.339-4.384c0.111-0.386,0.463-0.643,0.866-0.643h0.017
				c0-0.018-0.008-0.034-0.008-0.052c0.257,0.034,0.515,0.052,0.781,0.052h0.781c0.403,0,0.755,0.257,0.875,0.643L30.437,23.699z"/>
			<path style="fill:#231F20;" d="M27.443,18.654H26.67c0-0.018-0.008-0.034-0.008-0.052C26.919,18.636,27.177,18.654,27.443,18.654
				z"/>
		</g>
		<g>
			<path style="fill:#FF0B17;" d="M37.035,40.824c-1.176-1.176-3.286-1.176-4.461,0l-3.646,3.637c-0.79,0.799-2.205,0.799-3.003,0
				l-3.638-3.637c-0.592-0.592-1.407-0.927-2.231-0.927c-0.832,0-1.647,0.334-2.231,0.927c-0.592,0.601-0.918,1.407-0.909,2.265
				c0.017,0.858,0.36,1.639,0.961,2.222l9.558,9.155l9.575-9.155c0.6-0.583,0.943-1.372,0.952-2.214
				C37.97,42.239,37.644,41.425,37.035,40.824z M37.035,40.824c-1.176-1.176-3.286-1.176-4.461,0l-3.646,3.637
				c-0.79,0.799-2.205,0.799-3.003,0l-3.638-3.637c-0.592-0.592-1.407-0.927-2.231-0.927c-0.832,0-1.647,0.334-2.231,0.927
				c-0.592,0.601-0.918,1.407-0.909,2.265c0.017,0.858,0.36,1.639,0.961,2.222l9.558,9.155l9.575-9.155
				c0.6-0.583,0.943-1.372,0.952-2.214C37.97,42.239,37.644,41.425,37.035,40.824z M37.035,40.824c-1.176-1.176-3.286-1.176-4.461,0
				l-3.646,3.637c-0.79,0.799-2.205,0.799-3.003,0l-3.638-3.637c-0.592-0.592-1.407-0.927-2.231-0.927
				c-0.832,0-1.647,0.334-2.231,0.927c-0.592,0.601-0.918,1.407-0.909,2.265c0.017,0.858,0.36,1.639,0.961,2.222l9.558,9.155
				l9.575-9.155c0.6-0.583,0.943-1.372,0.952-2.214C37.97,42.239,37.644,41.425,37.035,40.824z M37.035,40.824
				c-1.176-1.176-3.286-1.176-4.461,0l-3.646,3.637c-0.79,0.799-2.205,0.799-3.003,0l-3.638-3.637
				c-0.592-0.592-1.407-0.927-2.231-0.927c-0.832,0-1.647,0.334-2.231,0.927c-0.592,0.601-0.918,1.407-0.909,2.265
				c0.017,0.858,0.36,1.639,0.961,2.222l9.558,9.155l9.575-9.155c0.6-0.583,0.943-1.372,0.952-2.214
				C37.97,42.239,37.644,41.425,37.035,40.824z M37.035,40.824c-1.176-1.176-3.286-1.176-4.461,0l-3.646,3.637
				c-0.79,0.799-2.205,0.799-3.003,0l-3.638-3.637c-0.592-0.592-1.407-0.927-2.231-0.927c-0.832,0-1.647,0.334-2.231,0.927
				c-0.592,0.601-0.918,1.407-0.909,2.265c0.017,0.858,0.36,1.639,0.961,2.222l9.558,9.155l9.575-9.155
				c0.6-0.583,0.943-1.372,0.952-2.214C37.97,42.239,37.644,41.425,37.035,40.824z M37.035,40.824c-1.176-1.176-3.286-1.176-4.461,0
				l-3.646,3.637c-0.79,0.799-2.205,0.799-3.003,0l-3.638-3.637c-0.592-0.592-1.407-0.927-2.231-0.927
				c-0.832,0-1.647,0.334-2.231,0.927c-0.592,0.601-0.918,1.407-0.909,2.265c0.017,0.858,0.36,1.639,0.961,2.222l9.558,9.155
				l9.575-9.155c0.6-0.583,0.943-1.372,0.952-2.214C37.97,42.239,37.644,41.425,37.035,40.824z M37.035,40.824
				c-1.176-1.176-3.286-1.176-4.461,0l-3.646,3.637c-0.79,0.799-2.205,0.799-3.003,0l-3.638-3.637
				c-0.592-0.592-1.407-0.927-2.231-0.927c-0.832,0-1.647,0.334-2.231,0.927c-0.592,0.601-0.918,1.407-0.909,2.265
				c0.017,0.858,0.36,1.639,0.961,2.222l9.558,9.155l9.575-9.155c0.6-0.583,0.943-1.372,0.952-2.214
				C37.97,42.239,37.644,41.425,37.035,40.824z M37.035,40.824c-1.176-1.176-3.286-1.176-4.461,0l-3.646,3.637
				c-0.79,0.799-2.205,0.799-3.003,0l-3.638-3.637c-0.592-0.592-1.407-0.927-2.231-0.927c-0.832,0-1.647,0.334-2.231,0.927
				c-0.592,0.601-0.918,1.407-0.909,2.265c0.017,0.858,0.36,1.639,0.961,2.222l9.558,9.155l9.575-9.155
				c0.6-0.583,0.943-1.372,0.952-2.214C37.97,42.239,37.644,41.425,37.035,40.824z M37.035,40.824c-1.176-1.176-3.286-1.176-4.461,0
				l-3.646,3.637c-0.79,0.799-2.205,0.799-3.003,0l-3.638-3.637c-0.592-0.592-1.407-0.927-2.231-0.927
				c-0.832,0-1.647,0.334-2.231,0.927c-0.592,0.601-0.918,1.407-0.909,2.265c0.017,0.858,0.36,1.639,0.961,2.222l9.558,9.155
				l9.575-9.155c0.6-0.583,0.943-1.372,0.952-2.214C37.97,42.239,37.644,41.425,37.035,40.824z M37.035,40.824
				c-1.176-1.176-3.286-1.176-4.461,0l-3.646,3.637c-0.79,0.799-2.205,0.799-3.003,0l-3.638-3.637
				c-0.592-0.592-1.407-0.927-2.231-0.927c-0.832,0-1.647,0.334-2.231,0.927c-0.592,0.601-0.918,1.407-0.909,2.265
				c0.017,0.858,0.36,1.639,0.961,2.222l9.558,9.155l9.575-9.155c0.6-0.583,0.943-1.372,0.952-2.214
				C37.97,42.239,37.644,41.425,37.035,40.824z M37.035,40.824c-1.176-1.176-3.286-1.176-4.461,0l-3.646,3.637
				c-0.79,0.799-2.205,0.799-3.003,0l-3.638-3.637c-0.592-0.592-1.407-0.927-2.231-0.927c-0.832,0-1.647,0.334-2.231,0.927
				c-0.592,0.601-0.918,1.407-0.909,2.265c0.017,0.858,0.36,1.639,0.961,2.222l9.558,9.155l9.575-9.155
				c0.6-0.583,0.943-1.372,0.952-2.214C37.97,42.239,37.644,41.425,37.035,40.824z M37.035,40.824c-1.176-1.176-3.286-1.176-4.461,0
				l-3.646,3.637c-0.79,0.799-2.205,0.799-3.003,0l-3.638-3.637c-0.592-0.592-1.407-0.927-2.231-0.927
				c-0.832,0-1.647,0.334-2.231,0.927c-0.592,0.601-0.918,1.407-0.909,2.265c0.017,0.858,0.36,1.639,0.961,2.222l9.558,9.155
				l9.575-9.155c0.6-0.583,0.943-1.372,0.952-2.214C37.97,42.239,37.644,41.425,37.035,40.824z M37.035,40.824
				c-1.176-1.176-3.286-1.176-4.461,0l-3.646,3.637c-0.79,0.799-2.205,0.799-3.003,0l-3.638-3.637
				c-0.592-0.592-1.407-0.927-2.231-0.927c-0.832,0-1.647,0.334-2.231,0.927c-0.592,0.601-0.918,1.407-0.909,2.265
				c0.017,0.858,0.36,1.639,0.961,2.222l9.558,9.155l9.575-9.155c0.6-0.583,0.943-1.372,0.952-2.214
				C37.97,42.239,37.644,41.425,37.035,40.824z M37.035,40.824c-1.176-1.176-3.286-1.176-4.461,0l-3.646,3.637
				c-0.79,0.799-2.205,0.799-3.003,0l-3.638-3.637c-0.592-0.592-1.407-0.927-2.231-0.927c-0.832,0-1.647,0.334-2.231,0.927
				c-0.592,0.601-0.918,1.407-0.909,2.265c0.017,0.858,0.36,1.639,0.961,2.222l9.558,9.155l9.575-9.155
				c0.6-0.583,0.943-1.372,0.952-2.214C37.97,42.239,37.644,41.425,37.035,40.824z M37.035,40.824c-1.176-1.176-3.286-1.176-4.461,0
				l-3.646,3.637c-0.79,0.799-2.205,0.799-3.003,0l-3.638-3.637c-0.592-0.592-1.407-0.927-2.231-0.927
				c-0.832,0-1.647,0.334-2.231,0.927c-0.592,0.601-0.918,1.407-0.909,2.265c0.017,0.858,0.36,1.639,0.961,2.222l9.558,9.155
				l9.575-9.155c0.6-0.583,0.943-1.372,0.952-2.214C37.97,42.239,37.644,41.425,37.035,40.824z M37.035,40.824
				c-1.176-1.176-3.286-1.176-4.461,0l-3.646,3.637c-0.79,0.799-2.205,0.799-3.003,0l-3.638-3.637
				c-0.592-0.592-1.407-0.927-2.231-0.927c-0.832,0-1.647,0.334-2.231,0.927c-0.592,0.601-0.918,1.407-0.909,2.265
				c0.017,0.858,0.36,1.639,0.961,2.222l9.558,9.155l9.575-9.155c0.6-0.583,0.943-1.372,0.952-2.214
				C37.97,42.239,37.644,41.425,37.035,40.824z M37.035,40.824c-1.176-1.176-3.286-1.176-4.461,0l-3.646,3.637
				c-0.79,0.799-2.205,0.799-3.003,0l-3.638-3.637c-0.592-0.592-1.407-0.927-2.231-0.927c-0.832,0-1.647,0.334-2.231,0.927
				c-0.592,0.601-0.918,1.407-0.909,2.265c0.017,0.858,0.36,1.639,0.961,2.222l9.558,9.155l9.575-9.155
				c0.6-0.583,0.943-1.372,0.952-2.214C37.97,42.239,37.644,41.425,37.035,40.824z M37.035,40.824c-1.176-1.176-3.286-1.176-4.461,0
				l-3.646,3.637c-0.79,0.799-2.205,0.799-3.003,0l-3.638-3.637c-0.592-0.592-1.407-0.927-2.231-0.927
				c-0.832,0-1.647,0.334-2.231,0.927c-0.592,0.601-0.918,1.407-0.909,2.265c0.017,0.858,0.36,1.639,0.961,2.222l9.558,9.155
				l9.575-9.155c0.6-0.583,0.943-1.372,0.952-2.214C37.97,42.239,37.644,41.425,37.035,40.824z M37.035,40.824
				c-1.176-1.176-3.286-1.176-4.461,0l-3.646,3.637c-0.79,0.799-2.205,0.799-3.003,0l-3.638-3.637
				c-0.592-0.592-1.407-0.927-2.231-0.927c-0.832,0-1.647,0.334-2.231,0.927c-0.592,0.601-0.918,1.407-0.909,2.265
				c0.017,0.858,0.36,1.639,0.961,2.222l9.558,9.155l9.575-9.155c0.6-0.583,0.943-1.372,0.952-2.214
				C37.97,42.239,37.644,41.425,37.035,40.824z M37.035,40.824c-1.176-1.176-3.286-1.176-4.461,0l-3.646,3.637
				c-0.79,0.799-2.205,0.799-3.003,0l-3.638-3.637c-0.592-0.592-1.407-0.927-2.231-0.927c-0.832,0-1.647,0.334-2.231,0.927
				c-0.592,0.601-0.918,1.407-0.909,2.265c0.017,0.858,0.36,1.639,0.961,2.222l9.558,9.155l9.575-9.155
				c0.6-0.583,0.943-1.372,0.952-2.214C37.97,42.239,37.644,41.425,37.035,40.824z M37.035,40.824c-1.176-1.176-3.286-1.176-4.461,0
				l-3.646,3.637c-0.79,0.799-2.205,0.799-3.003,0l-3.638-3.637c-0.592-0.592-1.407-0.927-2.231-0.927
				c-0.832,0-1.647,0.334-2.231,0.927c-0.592,0.601-0.918,1.407-0.909,2.265c0.017,0.858,0.36,1.639,0.961,2.222l9.558,9.155
				l9.575-9.155c0.6-0.583,0.943-1.372,0.952-2.214C37.97,42.239,37.644,41.425,37.035,40.824z M37.035,40.824
				c-1.176-1.176-3.286-1.176-4.461,0l-3.646,3.637c-0.79,0.799-2.205,0.799-3.003,0l-3.638-3.637
				c-0.592-0.592-1.407-0.927-2.231-0.927c-0.832,0-1.647,0.334-2.231,0.927c-0.592,0.601-0.918,1.407-0.909,2.265
				c0.017,0.858,0.36,1.639,0.961,2.222l9.558,9.155l9.575-9.155c0.6-0.583,0.943-1.372,0.952-2.214
				C37.97,42.239,37.644,41.425,37.035,40.824z M37.035,40.824c-1.176-1.176-3.286-1.176-4.461,0l-3.646,3.637
				c-0.79,0.799-2.205,0.799-3.003,0l-3.638-3.637c-0.592-0.592-1.407-0.927-2.231-0.927c-0.832,0-1.647,0.334-2.231,0.927
				c-0.592,0.601-0.918,1.407-0.909,2.265c0.017,0.858,0.36,1.639,0.961,2.222l9.558,9.155l9.575-9.155
				c0.6-0.583,0.943-1.372,0.952-2.214C37.97,42.239,37.644,41.425,37.035,40.824z M37.035,40.824c-1.176-1.176-3.286-1.176-4.461,0
				l-3.646,3.637c-0.79,0.799-2.205,0.799-3.003,0l-3.638-3.637c-0.592-0.592-1.407-0.927-2.231-0.927
				c-0.832,0-1.647,0.334-2.231,0.927c-0.592,0.601-0.918,1.407-0.909,2.265c0.017,0.858,0.36,1.639,0.961,2.222l9.558,9.155
				l9.575-9.155c0.6-0.583,0.943-1.372,0.952-2.214C37.97,42.239,37.644,41.425,37.035,40.824z M46.456,44.95l-0.017-0.154
				c-0.043-0.429-0.094-0.884-0.188-1.313c-0.06-0.386-0.103-0.583-0.155-0.781c-0.06-0.395-0.146-0.626-0.214-0.866
				c-0.155-0.549-0.257-0.858-0.36-1.176l-0.111-0.326c-0.146-0.378-0.292-0.747-0.446-1.124c-0.18-0.429-0.386-0.867-0.618-1.279
				l-1.467-2.317c-0.249-0.369-0.498-0.686-0.789-0.978c-0.403-0.506-0.626-0.755-0.85-0.979l-0.369-0.395
				c-0.404-0.403-0.833-0.781-1.261-1.132c-0.824-0.704-1.647-1.27-2.471-1.725c-0.455-0.274-0.815-0.463-1.167-0.66l-0.481-0.214
				c-0.738-0.344-1.176-0.515-1.639-0.661c-0.043-0.008-0.077-0.025-0.111-0.043l-1.064-0.334c-0.455-0.137-0.892-0.257-1.373-0.36
				c-0.566-0.095-1.227-0.206-1.862-0.266c-0.292-0.025-0.532-0.051-0.789-0.051c-0.498-0.06-0.798-0.069-1.046-0.06h-0.163
				c-1.355,0-2.703,0.146-4.118,0.437c-0.42,0.103-0.884,0.206-1.321,0.344c-8.194,2.437-13.685,9.806-13.685,18.335
				c0,8.845,6.212,16.654,14.809,18.635l0.318,0.069c0.841,0.172,1.407,0.249,1.999,0.309c0.721,0.085,1.355,0.111,1.999,0.111
				c0.06,0,0.112,0,0.172-0.008c10.468-0.086,18.944-8.632,18.944-19.116C46.559,46.237,46.533,45.594,46.456,44.95z M39.944,48.382
				l-0.455,0.429v0.008L28.901,58.945c-0.412,0.395-0.944,0.591-1.476,0.591c-0.524,0-1.056-0.197-1.467-0.591L14.942,48.382
				c-1.433-1.372-2.239-3.234-2.274-5.225c-0.026-2.008,0.729-3.904,2.136-5.328c2.78-2.78,7.722-2.772,10.485-0.018l2.137,2.145
				l2.145-2.145c1.801-1.801,4.538-2.419,6.984-1.862c1.304,0.283,2.522,0.91,3.483,1.862c1.424,1.424,2.197,3.32,2.171,5.329
				C42.192,45.139,41.385,47.002,39.944,48.382z M32.574,40.824l-3.646,3.637c-0.79,0.799-2.205,0.799-3.003,0l-3.638-3.637
				c-0.592-0.592-1.407-0.927-2.231-0.927c-0.832,0-1.647,0.334-2.231,0.927c-0.592,0.601-0.918,1.407-0.909,2.265
				c0.017,0.858,0.36,1.639,0.961,2.222l9.558,9.155l9.575-9.155c0.6-0.583,0.943-1.372,0.952-2.214
				c0.008-0.858-0.318-1.672-0.927-2.273C35.859,39.648,33.749,39.648,32.574,40.824z M37.035,40.824
				c-1.176-1.176-3.286-1.176-4.461,0l-3.646,3.637c-0.79,0.799-2.205,0.799-3.003,0l-3.638-3.637
				c-0.592-0.592-1.407-0.927-2.231-0.927c-0.832,0-1.647,0.334-2.231,0.927c-0.592,0.601-0.918,1.407-0.909,2.265
				c0.017,0.858,0.36,1.639,0.961,2.222l9.558,9.155l9.575-9.155c0.6-0.583,0.943-1.372,0.952-2.214
				C37.97,42.239,37.644,41.425,37.035,40.824z M37.035,40.824c-1.176-1.176-3.286-1.176-4.461,0l-3.646,3.637
				c-0.79,0.799-2.205,0.799-3.003,0l-3.638-3.637c-0.592-0.592-1.407-0.927-2.231-0.927c-0.832,0-1.647,0.334-2.231,0.927
				c-0.592,0.601-0.918,1.407-0.909,2.265c0.017,0.858,0.36,1.639,0.961,2.222l9.558,9.155l9.575-9.155
				c0.6-0.583,0.943-1.372,0.952-2.214C37.97,42.239,37.644,41.425,37.035,40.824z M37.035,40.824c-1.176-1.176-3.286-1.176-4.461,0
				l-3.646,3.637c-0.79,0.799-2.205,0.799-3.003,0l-3.638-3.637c-0.592-0.592-1.407-0.927-2.231-0.927
				c-0.832,0-1.647,0.334-2.231,0.927c-0.592,0.601-0.918,1.407-0.909,2.265c0.017,0.858,0.36,1.639,0.961,2.222l9.558,9.155
				l9.575-9.155c0.6-0.583,0.943-1.372,0.952-2.214C37.97,42.239,37.644,41.425,37.035,40.824z M37.035,40.824
				c-1.176-1.176-3.286-1.176-4.461,0l-3.646,3.637c-0.79,0.799-2.205,0.799-3.003,0l-3.638-3.637
				c-0.592-0.592-1.407-0.927-2.231-0.927c-0.832,0-1.647,0.334-2.231,0.927c-0.592,0.601-0.918,1.407-0.909,2.265
				c0.017,0.858,0.36,1.639,0.961,2.222l9.558,9.155l9.575-9.155c0.6-0.583,0.943-1.372,0.952-2.214
				C37.97,42.239,37.644,41.425,37.035,40.824z M37.035,40.824c-1.176-1.176-3.286-1.176-4.461,0l-3.646,3.637
				c-0.79,0.799-2.205,0.799-3.003,0l-3.638-3.637c-0.592-0.592-1.407-0.927-2.231-0.927c-0.832,0-1.647,0.334-2.231,0.927
				c-0.592,0.601-0.918,1.407-0.909,2.265c0.017,0.858,0.36,1.639,0.961,2.222l9.558,9.155l9.575-9.155
				c0.6-0.583,0.943-1.372,0.952-2.214C37.97,42.239,37.644,41.425,37.035,40.824z M37.035,40.824c-1.176-1.176-3.286-1.176-4.461,0
				l-3.646,3.637c-0.79,0.799-2.205,0.799-3.003,0l-3.638-3.637c-0.592-0.592-1.407-0.927-2.231-0.927
				c-0.832,0-1.647,0.334-2.231,0.927c-0.592,0.601-0.918,1.407-0.909,2.265c0.017,0.858,0.36,1.639,0.961,2.222l9.558,9.155
				l9.575-9.155c0.6-0.583,0.943-1.372,0.952-2.214C37.97,42.239,37.644,41.425,37.035,40.824z M37.035,40.824
				c-1.176-1.176-3.286-1.176-4.461,0l-3.646,3.637c-0.79,0.799-2.205,0.799-3.003,0l-3.638-3.637
				c-0.592-0.592-1.407-0.927-2.231-0.927c-0.832,0-1.647,0.334-2.231,0.927c-0.592,0.601-0.918,1.407-0.909,2.265
				c0.017,0.858,0.36,1.639,0.961,2.222l9.558,9.155l9.575-9.155c0.6-0.583,0.943-1.372,0.952-2.214
				C37.97,42.239,37.644,41.425,37.035,40.824z M37.035,40.824c-1.176-1.176-3.286-1.176-4.461,0l-3.646,3.637
				c-0.79,0.799-2.205,0.799-3.003,0l-3.638-3.637c-0.592-0.592-1.407-0.927-2.231-0.927c-0.832,0-1.647,0.334-2.231,0.927
				c-0.592,0.601-0.918,1.407-0.909,2.265c0.017,0.858,0.36,1.639,0.961,2.222l9.558,9.155l9.575-9.155
				c0.6-0.583,0.943-1.372,0.952-2.214C37.97,42.239,37.644,41.425,37.035,40.824z M37.035,40.824c-1.176-1.176-3.286-1.176-4.461,0
				l-3.646,3.637c-0.79,0.799-2.205,0.799-3.003,0l-3.638-3.637c-0.592-0.592-1.407-0.927-2.231-0.927
				c-0.832,0-1.647,0.334-2.231,0.927c-0.592,0.601-0.918,1.407-0.909,2.265c0.017,0.858,0.36,1.639,0.961,2.222l9.558,9.155
				l9.575-9.155c0.6-0.583,0.943-1.372,0.952-2.214C37.97,42.239,37.644,41.425,37.035,40.824z M37.035,40.824
				c-1.176-1.176-3.286-1.176-4.461,0l-3.646,3.637c-0.79,0.799-2.205,0.799-3.003,0l-3.638-3.637
				c-0.592-0.592-1.407-0.927-2.231-0.927c-0.832,0-1.647,0.334-2.231,0.927c-0.592,0.601-0.918,1.407-0.909,2.265
				c0.017,0.858,0.36,1.639,0.961,2.222l9.558,9.155l9.575-9.155c0.6-0.583,0.943-1.372,0.952-2.214
				C37.97,42.239,37.644,41.425,37.035,40.824z M37.035,40.824c-1.176-1.176-3.286-1.176-4.461,0l-3.646,3.637
				c-0.79,0.799-2.205,0.799-3.003,0l-3.638-3.637c-0.592-0.592-1.407-0.927-2.231-0.927c-0.832,0-1.647,0.334-2.231,0.927
				c-0.592,0.601-0.918,1.407-0.909,2.265c0.017,0.858,0.36,1.639,0.961,2.222l9.558,9.155l9.575-9.155
				c0.6-0.583,0.943-1.372,0.952-2.214C37.97,42.239,37.644,41.425,37.035,40.824z M37.035,40.824c-1.176-1.176-3.286-1.176-4.461,0
				l-3.646,3.637c-0.79,0.799-2.205,0.799-3.003,0l-3.638-3.637c-0.592-0.592-1.407-0.927-2.231-0.927
				c-0.832,0-1.647,0.334-2.231,0.927c-0.592,0.601-0.918,1.407-0.909,2.265c0.017,0.858,0.36,1.639,0.961,2.222l9.558,9.155
				l9.575-9.155c0.6-0.583,0.943-1.372,0.952-2.214C37.97,42.239,37.644,41.425,37.035,40.824z M37.035,40.824
				c-1.176-1.176-3.286-1.176-4.461,0l-3.646,3.637c-0.79,0.799-2.205,0.799-3.003,0l-3.638-3.637
				c-0.592-0.592-1.407-0.927-2.231-0.927c-0.832,0-1.647,0.334-2.231,0.927c-0.592,0.601-0.918,1.407-0.909,2.265
				c0.017,0.858,0.36,1.639,0.961,2.222l9.558,9.155l9.575-9.155c0.6-0.583,0.943-1.372,0.952-2.214
				C37.97,42.239,37.644,41.425,37.035,40.824z M37.035,40.824c-1.176-1.176-3.286-1.176-4.461,0l-3.646,3.637
				c-0.79,0.799-2.205,0.799-3.003,0l-3.638-3.637c-0.592-0.592-1.407-0.927-2.231-0.927c-0.832,0-1.647,0.334-2.231,0.927
				c-0.592,0.601-0.918,1.407-0.909,2.265c0.017,0.858,0.36,1.639,0.961,2.222l9.558,9.155l9.575-9.155
				c0.6-0.583,0.943-1.372,0.952-2.214C37.97,42.239,37.644,41.425,37.035,40.824z M37.035,40.824c-1.176-1.176-3.286-1.176-4.461,0
				l-3.646,3.637c-0.79,0.799-2.205,0.799-3.003,0l-3.638-3.637c-0.592-0.592-1.407-0.927-2.231-0.927
				c-0.832,0-1.647,0.334-2.231,0.927c-0.592,0.601-0.918,1.407-0.909,2.265c0.017,0.858,0.36,1.639,0.961,2.222l9.558,9.155
				l9.575-9.155c0.6-0.583,0.943-1.372,0.952-2.214C37.97,42.239,37.644,41.425,37.035,40.824z M37.035,40.824
				c-1.176-1.176-3.286-1.176-4.461,0l-3.646,3.637c-0.79,0.799-2.205,0.799-3.003,0l-3.638-3.637
				c-0.592-0.592-1.407-0.927-2.231-0.927c-0.832,0-1.647,0.334-2.231,0.927c-0.592,0.601-0.918,1.407-0.909,2.265
				c0.017,0.858,0.36,1.639,0.961,2.222l9.558,9.155l9.575-9.155c0.6-0.583,0.943-1.372,0.952-2.214
				C37.97,42.239,37.644,41.425,37.035,40.824z M37.035,40.824c-1.176-1.176-3.286-1.176-4.461,0l-3.646,3.637
				c-0.79,0.799-2.205,0.799-3.003,0l-3.638-3.637c-0.592-0.592-1.407-0.927-2.231-0.927c-0.832,0-1.647,0.334-2.231,0.927
				c-0.592,0.601-0.918,1.407-0.909,2.265c0.017,0.858,0.36,1.639,0.961,2.222l9.558,9.155l9.575-9.155
				c0.6-0.583,0.943-1.372,0.952-2.214C37.97,42.239,37.644,41.425,37.035,40.824z M37.035,40.824c-1.176-1.176-3.286-1.176-4.461,0
				l-3.646,3.637c-0.79,0.799-2.205,0.799-3.003,0l-3.638-3.637c-0.592-0.592-1.407-0.927-2.231-0.927
				c-0.832,0-1.647,0.334-2.231,0.927c-0.592,0.601-0.918,1.407-0.909,2.265c0.017,0.858,0.36,1.639,0.961,2.222l9.558,9.155
				l9.575-9.155c0.6-0.583,0.943-1.372,0.952-2.214C37.97,42.239,37.644,41.425,37.035,40.824z M37.035,40.824
				c-1.176-1.176-3.286-1.176-4.461,0l-3.646,3.637c-0.79,0.799-2.205,0.799-3.003,0l-3.638-3.637
				c-0.592-0.592-1.407-0.927-2.231-0.927c-0.832,0-1.647,0.334-2.231,0.927c-0.592,0.601-0.918,1.407-0.909,2.265
				c0.017,0.858,0.36,1.639,0.961,2.222l9.558,9.155l9.575-9.155c0.6-0.583,0.943-1.372,0.952-2.214
				C37.97,42.239,37.644,41.425,37.035,40.824z M37.035,40.824c-1.176-1.176-3.286-1.176-4.461,0l-3.646,3.637
				c-0.79,0.799-2.205,0.799-3.003,0l-3.638-3.637c-0.592-0.592-1.407-0.927-2.231-0.927c-0.832,0-1.647,0.334-2.231,0.927
				c-0.592,0.601-0.918,1.407-0.909,2.265c0.017,0.858,0.36,1.639,0.961,2.222l9.558,9.155l9.575-9.155
				c0.6-0.583,0.943-1.372,0.952-2.214C37.97,42.239,37.644,41.425,37.035,40.824z M37.035,40.824c-1.176-1.176-3.286-1.176-4.461,0
				l-3.646,3.637c-0.79,0.799-2.205,0.799-3.003,0l-3.638-3.637c-0.592-0.592-1.407-0.927-2.231-0.927
				c-0.832,0-1.647,0.334-2.231,0.927c-0.592,0.601-0.918,1.407-0.909,2.265c0.017,0.858,0.36,1.639,0.961,2.222l9.558,9.155
				l9.575-9.155c0.6-0.583,0.943-1.372,0.952-2.214C37.97,42.239,37.644,41.425,37.035,40.824z M37.035,40.824
				c-1.176-1.176-3.286-1.176-4.461,0l-3.646,3.637c-0.79,0.799-2.205,0.799-3.003,0l-3.638-3.637
				c-0.592-0.592-1.407-0.927-2.231-0.927c-0.832,0-1.647,0.334-2.231,0.927c-0.592,0.601-0.918,1.407-0.909,2.265
				c0.017,0.858,0.36,1.639,0.961,2.222l9.558,9.155l9.575-9.155c0.6-0.583,0.943-1.372,0.952-2.214
				C37.97,42.239,37.644,41.425,37.035,40.824z"/>
		</g>
		<g>
			<path style="fill:#FCE903;" d="M37.962,43.097c-0.009,0.841-0.352,1.631-0.952,2.214l-9.575,9.155l-9.558-9.155
				c-0.6-0.583-0.944-1.364-0.961-2.222c-0.009-0.858,0.317-1.664,0.909-2.265c0.584-0.592,1.399-0.927,2.231-0.927
				c0.824,0,1.639,0.334,2.231,0.927l3.638,3.637c0.798,0.799,2.213,0.799,3.003,0l3.646-3.637c1.175-1.176,3.286-1.176,4.461,0
				C37.644,41.425,37.97,42.239,37.962,43.097z"/>
				
			<path style="fill:#231F20;" d="M40.038,37.812c-0.961-0.952-2.179-1.579-3.483-1.862c-2.445-0.557-5.182,0.06-6.984,1.862
				l-2.145,2.145l-2.137-2.145c-2.763-2.754-7.705-2.762-10.485,0.018c-1.407,1.424-2.162,3.321-2.136,5.328
				c0.034,1.991,0.841,3.853,2.274,5.225l11.016,10.562c0.412,0.395,0.944,0.591,1.467,0.591c0.532,0,1.064-0.197,1.476-0.591
				L39.489,48.82v-0.008l0.455-0.429c1.441-1.381,2.248-3.243,2.265-5.242C42.234,41.132,41.462,39.236,40.038,37.812z
				 M16.915,43.089c-0.009-0.858,0.317-1.664,0.909-2.265c0.584-0.592,1.399-0.927,2.231-0.927c0.824,0,1.639,0.334,2.231,0.927
				l3.638,3.637c0.798,0.799,2.213,0.799,3.003,0l3.646-3.637c1.175-1.176,3.286-1.176,4.461,0c0.609,0.601,0.935,1.415,0.927,2.273
				c-0.009,0.841-0.352,1.631-0.952,2.214l-9.575,9.155l-9.558-9.155C17.276,44.728,16.932,43.947,16.915,43.089z"/>
		</g>
		<g>
			<path style="fill:#231F20;" d="M50.66,44.325c-0.06-0.584-0.137-1.193-0.232-1.553c-0.034-0.308-0.103-0.66-0.163-0.858
				c-0.06-0.463-0.189-0.892-0.334-1.356c-0.077-0.3-0.172-0.609-0.275-0.917l-0.12-0.395c-0.197-0.55-0.42-1.098-0.643-1.648
				c-0.248-0.6-0.532-1.192-0.858-1.767l-0.206-0.378c-0.146-0.266-0.292-0.514-0.335-0.575c-0.188-0.377-0.42-0.686-0.498-0.78
				l-0.609-0.884c-0.386-0.566-0.806-1.098-1.081-1.339c-0.309-0.42-0.687-0.84-0.918-1.055c-0.171-0.214-0.334-0.386-0.514-0.558
				c-0.507-0.506-1.047-0.986-1.545-1.39c-1.012-0.866-2.076-1.604-3.063-2.136c-0.429-0.266-0.858-0.498-1.647-0.902
				c-0.266-0.128-0.532-0.257-0.515-0.223c-0.652-0.326-1.296-0.583-1.827-0.737c-0.017-0.009-0.034-0.018-0.051-0.018l-2.059-6.795
				c-0.214-0.686-0.549-1.304-0.987-1.827c0.892-1.159,1.433-2.651,1.433-4.264c0-3.681-2.771-6.675-6.169-6.675
				c-3.406,0-6.169,2.995-6.169,6.675c0,1.621,0.532,3.114,1.424,4.272c-0.437,0.524-0.772,1.133-0.978,1.819l-2.067,6.778
				c-9.37,3.286-15.581,12.003-15.581,22.033c0,10.905,7.722,20.506,18.361,22.84l0.481,0.103c0.703,0.128,1.416,0.231,2.076,0.292
				c0.824,0.103,1.639,0.137,2.454,0.137c12.887,0,23.372-10.485,23.372-23.372C50.814,46.066,50.754,45.139,50.66,44.325z
				 M27.443,9.542c1.039,0,1.922,1.115,1.922,2.428c0,1.321-0.884,2.428-1.922,2.428c-1.047,0-1.922-1.107-1.922-2.428
				C25.521,10.657,26.396,9.542,27.443,9.542z M25.787,19.297c0.111-0.386,0.463-0.643,0.866-0.643h0.017
				c0-0.018-0.008-0.034-0.008-0.052c0.257,0.034,0.515,0.052,0.781,0.052h0.781c0.403,0,0.755,0.257,0.875,0.643l1.339,4.401
				c-0.214-0.026-0.429-0.052-0.635-0.069c-0.395-0.034-0.763-0.06-0.824-0.034c-0.617-0.095-1.244-0.137-1.87-0.137
				c-0.875,0-1.767,0.085-2.66,0.223L25.787,19.297z M27.614,65.989c-0.06,0.008-0.111,0.008-0.172,0.008
				c-0.643,0-1.278-0.026-1.999-0.111c-0.592-0.06-1.158-0.137-1.999-0.309l-0.318-0.069c-8.597-1.982-14.809-9.79-14.809-18.635
				c0-8.529,5.491-15.899,13.685-18.335c0.438-0.137,0.901-0.24,1.321-0.344c1.416-0.292,2.763-0.437,4.118-0.437h0.163
				c0.249-0.008,0.549,0,1.046,0.06c0.258,0,0.498,0.026,0.789,0.051c0.635,0.06,1.296,0.172,1.862,0.266
				c0.48,0.103,0.918,0.223,1.373,0.36l1.064,0.334c0.034,0.018,0.069,0.034,0.111,0.043c0.463,0.146,0.901,0.318,1.639,0.661
				l0.481,0.214c0.352,0.197,0.712,0.386,1.167,0.66c0.824,0.455,1.647,1.021,2.471,1.725c0.429,0.351,0.858,0.729,1.261,1.132
				l0.369,0.395c0.223,0.224,0.446,0.473,0.85,0.979c0.292,0.292,0.54,0.609,0.789,0.978l1.467,2.317
				c0.232,0.411,0.438,0.85,0.618,1.279c0.154,0.377,0.3,0.746,0.446,1.124l0.111,0.326c0.103,0.318,0.206,0.627,0.36,1.176
				c0.069,0.24,0.155,0.472,0.214,0.866c0.052,0.198,0.094,0.395,0.155,0.781c0.094,0.429,0.146,0.884,0.188,1.313l0.017,0.154
				c0.077,0.643,0.103,1.287,0.103,1.922C46.559,57.357,38.082,65.902,27.614,65.989z"/>
		</g>
	</g>
</g>
</svg>
